<svg xmlns="http://www.w3.org/2000/svg" viewBox="0 0 172 172"><g style="mix-blend-mode:normal" fill="none" stroke-miterlimit="10" font-family="none" font-size="none" font-weight="none" text-anchor="none"><path d="M0 172V0h172v172z"/><g fill="#000"><path d="M85.936 53.75C68.09 53.75 53.75 68.187 53.75 86c0 17.813 14.34 32.25 32.186 32.25 17.844 0 32.314-14.437 32.314-32.25 0-17.813-14.466-32.25-32.315-32.25zM86 103.917c-9.894 0-17.917-8.023-17.917-17.917 0-9.894 8.023-17.917 17.917-17.917 9.894 0 17.917 8.023 17.917 17.917 0 9.894-8.023 17.917-17.917 17.917z"/><path d="M86 17.917H23.74a5.825 5.825 0 00-5.823 5.823V86c0 37.6 30.483 68.083 68.083 68.083 37.6 0 68.083-30.483 68.083-68.083 0-37.6-30.483-68.083-68.083-68.083zm0 114.666c-25.728 0-46.583-20.855-46.583-46.583 0-25.728 20.855-46.583 46.583-46.583 25.728 0 46.583 20.855 46.583 46.583 0 25.728-20.855 46.583-46.583 46.583z"/></g></g></svg>