<svg width="687" height="203" viewBox="0 0 687 203" fill="none" xmlns="http://www.w3.org/2000/svg">
<path d="M17.7041 162.765C12.1961 162.603 8.14615 161.469 5.55415 159.363C3.12415 157.095 1.90915 154.017 1.90915 150.129C1.90915 148.995 1.90915 147.78 1.90915 146.484C2.07115 145.188 2.31415 144.135 2.63815 143.325L37.6301 16.965C39.5742 8.54099 45.4872 5.21999 55.3692 7.002C59.9052 7.97399 63.1452 9.75599 65.0892 12.348C67.1952 14.778 67.6812 18.018 66.5472 22.068L66.7902 21.825L34.4712 138.465H76.5102V15.507C76.5102 7.73099 81.2082 3.84299 90.6042 3.84299C100.324 3.84299 105.184 7.73099 105.184 15.507V138.465H116.119C122.599 138.465 125.758 142.515 125.596 150.615C125.272 158.715 122.113 162.765 116.119 162.765H105.184V190.467C105.184 198.081 100.324 201.888 90.6042 201.888C81.2082 201.888 76.5102 198.081 76.5102 190.467V162.765H17.7041ZM226.534 92.295C226.534 90.189 226.21 88.164 225.562 86.22C224.914 84.114 224.104 82.17 223.132 80.388C221.026 76.5 216.652 74.556 210.01 74.556H194.458C187.816 74.556 183.361 76.5 181.093 80.388C179.149 84.114 178.177 88.083 178.177 92.295V188.523C178.177 196.137 173.722 199.944 164.812 199.944C155.578 199.944 150.961 196.137 150.961 188.523V90.108C150.961 76.824 155.335 67.104 164.083 60.948C172.993 54.792 181.66 51.714 190.084 51.714H214.627C218.353 51.714 222.484 52.443 227.02 53.901C231.556 55.359 235.93 57.627 240.142 60.705C244.192 57.627 248.404 55.359 252.778 53.901C257.314 52.443 261.607 51.714 265.657 51.714H289.957C298.543 51.714 307.129 54.792 315.715 60.948C324.625 66.942 329.08 76.662 329.08 90.108V188.523C329.08 196.137 324.544 199.944 315.472 199.944C306.4 199.944 301.864 196.137 301.864 188.523V92.295C301.864 90.189 301.621 88.083 301.135 85.977C300.649 83.871 299.758 81.927 298.462 80.145L298.705 80.388C297.409 78.282 295.789 76.824 293.845 76.014C291.901 75.042 289.066 74.556 285.34 74.556H270.031C263.227 74.556 258.772 76.5 256.666 80.388C254.56 83.952 253.507 87.921 253.507 92.295V188.523C253.507 196.137 249.052 199.944 240.142 199.944C231.07 199.944 226.534 196.137 226.534 188.523V92.295ZM386.067 187.794C386.067 195.57 381.612 199.458 372.702 199.458C363.63 199.458 359.094 195.57 359.094 187.794V62.406C359.094 54.63 363.63 50.742 372.702 50.742C381.612 50.742 386.067 54.63 386.067 62.406V187.794ZM391.17 20.124C391.17 25.308 389.388 29.682 385.824 33.246C382.26 36.81 377.886 38.592 372.702 38.592C367.518 38.592 363.063 36.81 359.337 33.246C355.773 29.682 353.991 25.308 353.991 20.124C353.991 14.778 355.773 10.323 359.337 6.75899C363.063 3.19499 367.518 1.413 372.702 1.413C377.886 1.413 382.26 3.19499 385.824 6.75899C389.388 10.323 391.17 14.778 391.17 20.124ZM446.563 187.794C446.563 195.57 442.108 199.458 433.198 199.458C424.288 199.458 419.833 195.57 419.833 187.794V90.108C419.833 83.466 420.886 77.715 422.992 72.855C425.098 67.995 428.419 64.026 432.955 60.948C441.541 54.792 450.127 51.714 458.713 51.714H497.836C506.098 51.714 514.684 54.792 523.594 60.948C532.342 67.104 536.716 76.824 536.716 90.108V187.794C536.716 195.57 532.261 199.458 523.351 199.458C514.441 199.458 509.986 195.57 509.986 187.794V92.295C509.986 88.083 508.69 84.033 506.098 80.145L506.341 80.388C504.235 76.5 499.942 74.556 493.462 74.556H463.087C456.445 74.556 452.071 76.5 449.965 80.388C447.697 83.79 446.563 87.759 446.563 92.295V187.794ZM658.302 74.556H611.403C604.761 74.556 600.387 76.5 598.281 80.388C596.013 83.79 594.879 87.759 594.879 92.295V162.279C594.879 166.491 596.175 169.731 598.767 171.999C601.359 174.105 605.652 175.158 611.646 175.158H636.675C642.507 175.158 645.423 178.965 645.423 186.579C645.423 189.819 644.694 192.573 643.236 194.841C641.94 196.947 639.753 198 636.675 198H607.272C597.066 198 587.994 195.408 580.056 190.224C572.118 185.364 568.149 176.13 568.149 162.522V90.108C568.149 83.466 569.202 77.715 571.308 72.855C573.414 67.995 576.735 64.026 581.271 60.948C589.857 54.792 598.443 51.714 607.029 51.714H658.302V15.264C658.302 7.488 662.757 3.6 671.667 3.6C680.577 3.6 685.032 7.488 685.032 15.264V187.794C685.032 195.57 680.577 199.458 671.667 199.458C668.265 199.458 665.187 198.891 662.433 197.757C659.679 196.461 658.302 193.707 658.302 189.495V74.556Z" fill="black"/>
<path d="M17.7041 162.765L17.6747 163.765L17.6894 163.765H17.7041V162.765ZM5.55415 159.363L4.87183 160.094L4.89692 160.117L4.92356 160.139L5.55415 159.363ZM1.90915 146.484L0.916871 146.36L0.909148 146.422V146.484H1.90915ZM2.63815 143.325L3.56663 143.696L3.58714 143.645L3.60188 143.592L2.63815 143.325ZM37.6301 16.965L38.5939 17.2319L38.5997 17.211L38.6045 17.1898L37.6301 16.965ZM55.3692 7.002L55.5787 6.02419L55.5627 6.02077L55.5466 6.01787L55.3692 7.002ZM65.0892 12.348L64.2892 12.948L64.3103 12.9762L64.3335 13.0029L65.0892 12.348ZM66.5472 22.068L65.5842 21.7984L64.5549 25.4745L67.2543 22.7751L66.5472 22.068ZM66.7902 21.825L67.7538 22.092L68.7676 18.4333L66.083 21.1179L66.7902 21.825ZM34.4712 138.465L33.5075 138.198L33.1564 139.465H34.4712V138.465ZM76.5102 138.465V139.465H77.5102V138.465H76.5102ZM105.184 138.465H104.184V139.465H105.184V138.465ZM125.596 150.615L126.595 150.655L126.596 150.645L126.596 150.635L125.596 150.615ZM105.184 162.765V161.765H104.184V162.765H105.184ZM76.5102 162.765H77.5102V161.765H76.5102V162.765ZM17.7335 161.765C12.3143 161.606 8.52697 160.49 6.18474 158.587L4.92356 160.139C7.76533 162.448 12.078 163.6 17.6747 163.765L17.7335 161.765ZM6.23647 158.632C4.04379 156.585 2.90915 153.791 2.90915 150.129H0.909148C0.909148 154.243 2.20451 157.605 4.87183 160.094L6.23647 158.632ZM2.90915 150.129C2.90915 150.127 2.90915 150.125 2.90915 150.122C2.90915 150.12 2.90915 150.118 2.90915 150.116C2.90915 150.113 2.90915 150.111 2.90915 150.109C2.90915 150.107 2.90915 150.105 2.90915 150.102C2.90915 150.1 2.90915 150.098 2.90915 150.096C2.90915 150.094 2.90915 150.091 2.90915 150.089C2.90915 150.087 2.90915 150.085 2.90915 150.082C2.90915 150.08 2.90915 150.078 2.90915 150.076C2.90915 150.074 2.90915 150.071 2.90915 150.069C2.90915 150.067 2.90915 150.065 2.90915 150.062C2.90915 150.06 2.90915 150.058 2.90915 150.056C2.90915 150.054 2.90915 150.051 2.90915 150.049C2.90915 150.047 2.90915 150.045 2.90915 150.042C2.90915 150.04 2.90915 150.038 2.90915 150.036C2.90915 150.034 2.90915 150.031 2.90915 150.029C2.90915 150.027 2.90915 150.025 2.90915 150.022C2.90915 150.02 2.90915 150.018 2.90915 150.016C2.90915 150.014 2.90915 150.011 2.90915 150.009C2.90915 150.007 2.90915 150.005 2.90915 150.002C2.90915 150 2.90915 149.998 2.90915 149.996C2.90915 149.994 2.90915 149.991 2.90915 149.989C2.90915 149.987 2.90915 149.985 2.90915 149.982C2.90915 149.98 2.90915 149.978 2.90915 149.976C2.90915 149.973 2.90915 149.971 2.90915 149.969C2.90915 149.967 2.90915 149.965 2.90915 149.962C2.90915 149.96 2.90915 149.958 2.90915 149.956C2.90915 149.953 2.90915 149.951 2.90915 149.949C2.90915 149.947 2.90915 149.944 2.90915 149.942C2.90915 149.94 2.90915 149.938 2.90915 149.936C2.90915 149.933 2.90915 149.931 2.90915 149.929C2.90915 149.927 2.90915 149.924 2.90915 149.922C2.90915 149.92 2.90915 149.918 2.90915 149.915C2.90915 149.913 2.90915 149.911 2.90915 149.909C2.90915 149.906 2.90915 149.904 2.90915 149.902C2.90915 149.9 2.90915 149.898 2.90915 149.895C2.90915 149.893 2.90915 149.891 2.90915 149.889C2.90915 149.886 2.90915 149.884 2.90915 149.882C2.90915 149.88 2.90915 149.877 2.90915 149.875C2.90915 149.873 2.90915 149.871 2.90915 149.868C2.90915 149.866 2.90915 149.864 2.90915 149.862C2.90915 149.859 2.90915 149.857 2.90915 149.855C2.90915 149.853 2.90915 149.851 2.90915 149.848C2.90915 149.846 2.90915 149.844 2.90915 149.842C2.90915 149.839 2.90915 149.837 2.90915 149.835C2.90915 149.833 2.90915 149.83 2.90915 149.828C2.90915 149.826 2.90915 149.824 2.90915 149.821C2.90915 149.819 2.90915 149.817 2.90915 149.815C2.90915 149.812 2.90915 149.81 2.90915 149.808C2.90915 149.806 2.90915 149.803 2.90915 149.801C2.90915 149.799 2.90915 149.797 2.90915 149.794C2.90915 149.792 2.90915 149.79 2.90915 149.788C2.90915 149.785 2.90915 149.783 2.90915 149.781C2.90915 149.779 2.90915 149.776 2.90915 149.774C2.90915 149.772 2.90915 149.77 2.90915 149.767C2.90915 149.765 2.90915 149.763 2.90915 149.761C2.90915 149.758 2.90915 149.756 2.90915 149.754C2.90915 149.752 2.90915 149.749 2.90915 149.747C2.90915 149.745 2.90915 149.743 2.90915 149.74C2.90915 149.738 2.90915 149.736 2.90915 149.734C2.90915 149.731 2.90915 149.729 2.90915 149.727C2.90915 149.725 2.90915 149.722 2.90915 149.72C2.90915 149.718 2.90915 149.716 2.90915 149.713C2.90915 149.711 2.90915 149.709 2.90915 149.707C2.90915 149.704 2.90915 149.702 2.90915 149.7C2.90915 149.698 2.90915 149.695 2.90915 149.693C2.90915 149.691 2.90915 149.689 2.90915 149.686C2.90915 149.684 2.90915 149.682 2.90915 149.68C2.90915 149.677 2.90915 149.675 2.90915 149.673C2.90915 149.671 2.90915 149.668 2.90915 149.666C2.90915 149.664 2.90915 149.662 2.90915 149.659C2.90915 149.657 2.90915 149.655 2.90915 149.653C2.90915 149.65 2.90915 149.648 2.90915 149.646C2.90915 149.644 2.90915 149.641 2.90915 149.639C2.90915 149.637 2.90915 149.634 2.90915 149.632C2.90915 149.63 2.90915 149.628 2.90915 149.625C2.90915 149.623 2.90915 149.621 2.90915 149.619C2.90915 149.616 2.90915 149.614 2.90915 149.612C2.90915 149.61 2.90915 149.607 2.90915 149.605C2.90915 149.603 2.90915 149.601 2.90915 149.598C2.90915 149.596 2.90915 149.594 2.90915 149.592C2.90915 149.589 2.90915 149.587 2.90915 149.585C2.90915 149.582 2.90915 149.58 2.90915 149.578C2.90915 149.576 2.90915 149.573 2.90915 149.571C2.90915 149.569 2.90915 149.567 2.90915 149.564C2.90915 149.562 2.90915 149.56 2.90915 149.558C2.90915 149.555 2.90915 149.553 2.90915 149.551C2.90915 149.548 2.90915 149.546 2.90915 149.544C2.90915 149.542 2.90915 149.539 2.90915 149.537C2.90915 149.535 2.90915 149.533 2.90915 149.53C2.90915 149.528 2.90915 149.526 2.90915 149.523C2.90915 149.521 2.90915 149.519 2.90915 149.517C2.90915 149.514 2.90915 149.512 2.90915 149.51C2.90915 149.508 2.90915 149.505 2.90915 149.503C2.90915 149.501 2.90915 149.498 2.90915 149.496C2.90915 149.494 2.90915 149.492 2.90915 149.489C2.90915 149.487 2.90915 149.485 2.90915 149.483C2.90915 149.48 2.90915 149.478 2.90915 149.476C2.90915 149.473 2.90915 149.471 2.90915 149.469C2.90915 149.467 2.90915 149.464 2.90915 149.462C2.90915 149.46 2.90915 149.458 2.90915 149.455C2.90915 149.453 2.90915 149.451 2.90915 149.448C2.90915 149.446 2.90915 149.444 2.90915 149.442C2.90915 149.439 2.90915 149.437 2.90915 149.435C2.90915 149.432 2.90915 149.43 2.90915 149.428C2.90915 149.426 2.90915 149.423 2.90915 149.421C2.90915 149.419 2.90915 149.417 2.90915 149.414C2.90915 149.412 2.90915 149.41 2.90915 149.407C2.90915 149.405 2.90915 149.403 2.90915 149.401C2.90915 149.398 2.90915 149.396 2.90915 149.394C2.90915 149.391 2.90915 149.389 2.90915 149.387C2.90915 149.385 2.90915 149.382 2.90915 149.38C2.90915 149.378 2.90915 149.375 2.90915 149.373C2.90915 149.371 2.90915 149.369 2.90915 149.366C2.90915 149.364 2.90915 149.362 2.90915 149.359C2.90915 149.357 2.90915 149.355 2.90915 149.353C2.90915 149.35 2.90915 149.348 2.90915 149.346C2.90915 149.343 2.90915 149.341 2.90915 149.339C2.90915 149.337 2.90915 149.334 2.90915 149.332C2.90915 149.33 2.90915 149.327 2.90915 149.325C2.90915 149.323 2.90915 149.321 2.90915 149.318C2.90915 149.316 2.90915 149.314 2.90915 149.311C2.90915 149.309 2.90915 149.307 2.90915 149.305C2.90915 149.302 2.90915 149.3 2.90915 149.298C2.90915 149.295 2.90915 149.293 2.90915 149.291C2.90915 149.289 2.90915 149.286 2.90915 149.284C2.90915 149.282 2.90915 149.279 2.90915 149.277C2.90915 149.275 2.90915 149.272 2.90915 149.27C2.90915 149.268 2.90915 149.266 2.90915 149.263C2.90915 149.261 2.90915 149.259 2.90915 149.256C2.90915 149.254 2.90915 149.252 2.90915 149.25C2.90915 149.247 2.90915 149.245 2.90915 149.243C2.90915 149.24 2.90915 149.238 2.90915 149.236C2.90915 149.233 2.90915 149.231 2.90915 149.229C2.90915 149.227 2.90915 149.224 2.90915 149.222C2.90915 149.22 2.90915 149.217 2.90915 149.215C2.90915 149.213 2.90915 149.21 2.90915 149.208C2.90915 149.206 2.90915 149.204 2.90915 149.201C2.90915 149.199 2.90915 149.197 2.90915 149.194C2.90915 149.192 2.90915 149.19 2.90915 149.187C2.90915 149.185 2.90915 149.183 2.90915 149.181C2.90915 149.178 2.90915 149.176 2.90915 149.174C2.90915 149.171 2.90915 149.169 2.90915 149.167C2.90915 149.164 2.90915 149.162 2.90915 149.16C2.90915 149.158 2.90915 149.155 2.90915 149.153C2.90915 149.151 2.90915 149.148 2.90915 149.146C2.90915 149.144 2.90915 149.141 2.90915 149.139C2.90915 149.137 2.90915 149.135 2.90915 149.132C2.90915 149.13 2.90915 149.128 2.90915 149.125C2.90915 149.123 2.90915 149.121 2.90915 149.118C2.90915 149.116 2.90915 149.114 2.90915 149.111C2.90915 149.109 2.90915 149.107 2.90915 149.105C2.90915 149.102 2.90915 149.1 2.90915 149.098C2.90915 149.095 2.90915 149.093 2.90915 149.091C2.90915 149.088 2.90915 149.086 2.90915 149.084C2.90915 149.081 2.90915 149.079 2.90915 149.077C2.90915 149.075 2.90915 149.072 2.90915 149.07C2.90915 149.068 2.90915 149.065 2.90915 149.063C2.90915 149.061 2.90915 149.058 2.90915 149.056C2.90915 149.054 2.90915 149.051 2.90915 149.049C2.90915 149.047 2.90915 149.044 2.90915 149.042C2.90915 149.04 2.90915 149.038 2.90915 149.035C2.90915 149.033 2.90915 149.031 2.90915 149.028C2.90915 149.026 2.90915 149.024 2.90915 149.021C2.90915 149.019 2.90915 149.017 2.90915 149.014C2.90915 149.012 2.90915 149.01 2.90915 149.007C2.90915 149.005 2.90915 149.003 2.90915 149C2.90915 148.998 2.90915 148.996 2.90915 148.994C2.90915 148.991 2.90915 148.989 2.90915 148.987C2.90915 148.984 2.90915 148.982 2.90915 148.98C2.90915 148.977 2.90915 148.975 2.90915 148.973C2.90915 148.97 2.90915 148.968 2.90915 148.966C2.90915 148.963 2.90915 148.961 2.90915 148.959C2.90915 148.956 2.90915 148.954 2.90915 148.952C2.90915 148.949 2.90915 148.947 2.90915 148.945C2.90915 148.942 2.90915 148.94 2.90915 148.938C2.90915 148.935 2.90915 148.933 2.90915 148.931C2.90915 148.929 2.90915 148.926 2.90915 148.924C2.90915 148.922 2.90915 148.919 2.90915 148.917C2.90915 148.915 2.90915 148.912 2.90915 148.91C2.90915 148.908 2.90915 148.905 2.90915 148.903C2.90915 148.901 2.90915 148.898 2.90915 148.896C2.90915 148.894 2.90915 148.891 2.90915 148.889C2.90915 148.887 2.90915 148.884 2.90915 148.882C2.90915 148.88 2.90915 148.877 2.90915 148.875C2.90915 148.873 2.90915 148.87 2.90915 148.868C2.90915 148.866 2.90915 148.863 2.90915 148.861C2.90915 148.859 2.90915 148.856 2.90915 148.854C2.90915 148.852 2.90915 148.849 2.90915 148.847C2.90915 148.845 2.90915 148.842 2.90915 148.84C2.90915 148.838 2.90915 148.835 2.90915 148.833C2.90915 148.831 2.90915 148.828 2.90915 148.826C2.90915 148.824 2.90915 148.821 2.90915 148.819C2.90915 148.817 2.90915 148.814 2.90915 148.812C2.90915 148.81 2.90915 148.807 2.90915 148.805C2.90915 148.803 2.90915 148.8 2.90915 148.798C2.90915 148.796 2.90915 148.793 2.90915 148.791C2.90915 148.789 2.90915 148.786 2.90915 148.784C2.90915 148.782 2.90915 148.779 2.90915 148.777C2.90915 148.775 2.90915 148.772 2.90915 148.77C2.90915 148.768 2.90915 148.765 2.90915 148.763C2.90915 148.761 2.90915 148.758 2.90915 148.756C2.90915 148.754 2.90915 148.751 2.90915 148.749C2.90915 148.747 2.90915 148.744 2.90915 148.742C2.90915 148.74 2.90915 148.737 2.90915 148.735C2.90915 148.733 2.90915 148.73 2.90915 148.728C2.90915 148.726 2.90915 148.723 2.90915 148.721C2.90915 148.719 2.90915 148.716 2.90915 148.714C2.90915 148.712 2.90915 148.709 2.90915 148.707C2.90915 148.704 2.90915 148.702 2.90915 148.7C2.90915 148.697 2.90915 148.695 2.90915 148.693C2.90915 148.69 2.90915 148.688 2.90915 148.686C2.90915 148.683 2.90915 148.681 2.90915 148.679C2.90915 148.676 2.90915 148.674 2.90915 148.672C2.90915 148.669 2.90915 148.667 2.90915 148.665C2.90915 148.662 2.90915 148.66 2.90915 148.658C2.90915 148.655 2.90915 148.653 2.90915 148.651C2.90915 148.648 2.90915 148.646 2.90915 148.643C2.90915 148.641 2.90915 148.639 2.90915 148.636C2.90915 148.634 2.90915 148.632 2.90915 148.629C2.90915 148.627 2.90915 148.625 2.90915 148.622C2.90915 148.62 2.90915 148.618 2.90915 148.615C2.90915 148.613 2.90915 148.611 2.90915 148.608C2.90915 148.606 2.90915 148.604 2.90915 148.601C2.90915 148.599 2.90915 148.596 2.90915 148.594C2.90915 148.592 2.90915 148.589 2.90915 148.587C2.90915 148.585 2.90915 148.582 2.90915 148.58C2.90915 148.578 2.90915 148.575 2.90915 148.573C2.90915 148.571 2.90915 148.568 2.90915 148.566C2.90915 148.564 2.90915 148.561 2.90915 148.559C2.90915 148.556 2.90915 148.554 2.90915 148.552C2.90915 148.549 2.90915 148.547 2.90915 148.545C2.90915 148.542 2.90915 148.54 2.90915 148.538C2.90915 148.535 2.90915 148.533 2.90915 148.53C2.90915 148.528 2.90915 148.526 2.90915 148.523C2.90915 148.521 2.90915 148.519 2.90915 148.516C2.90915 148.514 2.90915 148.512 2.90915 148.509C2.90915 148.507 2.90915 148.505 2.90915 148.502C2.90915 148.5 2.90915 148.497 2.90915 148.495C2.90915 148.493 2.90915 148.49 2.90915 148.488C2.90915 148.486 2.90915 148.483 2.90915 148.481C2.90915 148.479 2.90915 148.476 2.90915 148.474C2.90915 148.471 2.90915 148.469 2.90915 148.467C2.90915 148.464 2.90915 148.462 2.90915 148.46C2.90915 148.457 2.90915 148.455 2.90915 148.453C2.90915 148.45 2.90915 148.448 2.90915 148.445C2.90915 148.443 2.90915 148.441 2.90915 148.438C2.90915 148.436 2.90915 148.434 2.90915 148.431C2.90915 148.429 2.90915 148.427 2.90915 148.424C2.90915 148.422 2.90915 148.419 2.90915 148.417C2.90915 148.415 2.90915 148.412 2.90915 148.41C2.90915 148.408 2.90915 148.405 2.90915 148.403C2.90915 148.4 2.90915 148.398 2.90915 148.396C2.90915 148.393 2.90915 148.391 2.90915 148.389C2.90915 148.386 2.90915 148.384 2.90915 148.381C2.90915 148.379 2.90915 148.377 2.90915 148.374C2.90915 148.372 2.90915 148.37 2.90915 148.367C2.90915 148.365 2.90915 148.363 2.90915 148.36C2.90915 148.358 2.90915 148.355 2.90915 148.353C2.90915 148.351 2.90915 148.348 2.90915 148.346C2.90915 148.344 2.90915 148.341 2.90915 148.339C2.90915 148.336 2.90915 148.334 2.90915 148.332C2.90915 148.329 2.90915 148.327 2.90915 148.324C2.90915 148.322 2.90915 148.32 2.90915 148.317C2.90915 148.315 2.90915 148.313 2.90915 148.31C2.90915 148.308 2.90915 148.305 2.90915 148.303C2.90915 148.301 2.90915 148.298 2.90915 148.296C2.90915 148.294 2.90915 148.291 2.90915 148.289C2.90915 148.286 2.90915 148.284 2.90915 148.282C2.90915 148.279 2.90915 148.277 2.90915 148.275C2.90915 148.272 2.90915 148.27 2.90915 148.267C2.90915 148.265 2.90915 148.263 2.90915 148.26C2.90915 148.258 2.90915 148.255 2.90915 148.253C2.90915 148.251 2.90915 148.248 2.90915 148.246C2.90915 148.244 2.90915 148.241 2.90915 148.239C2.90915 148.236 2.90915 148.234 2.90915 148.232C2.90915 148.229 2.90915 148.227 2.90915 148.224C2.90915 148.222 2.90915 148.22 2.90915 148.217C2.90915 148.215 2.90915 148.213 2.90915 148.21C2.90915 148.208 2.90915 148.205 2.90915 148.203C2.90915 148.201 2.90915 148.198 2.90915 148.196C2.90915 148.193 2.90915 148.191 2.90915 148.189C2.90915 148.186 2.90915 148.184 2.90915 148.182C2.90915 148.179 2.90915 148.177 2.90915 148.174C2.90915 148.172 2.90915 148.17 2.90915 148.167C2.90915 148.165 2.90915 148.162 2.90915 148.16C2.90915 148.158 2.90915 148.155 2.90915 148.153C2.90915 148.15 2.90915 148.148 2.90915 148.146C2.90915 148.143 2.90915 148.141 2.90915 148.138C2.90915 148.136 2.90915 148.134 2.90915 148.131C2.90915 148.129 2.90915 148.127 2.90915 148.124C2.90915 148.122 2.90915 148.119 2.90915 148.117C2.90915 148.115 2.90915 148.112 2.90915 148.11C2.90915 148.107 2.90915 148.105 2.90915 148.103C2.90915 148.1 2.90915 148.098 2.90915 148.095C2.90915 148.093 2.90915 148.091 2.90915 148.088C2.90915 148.086 2.90915 148.083 2.90915 148.081C2.90915 148.079 2.90915 148.076 2.90915 148.074C2.90915 148.071 2.90915 148.069 2.90915 148.067C2.90915 148.064 2.90915 148.062 2.90915 148.059C2.90915 148.057 2.90915 148.055 2.90915 148.052C2.90915 148.05 2.90915 148.047 2.90915 148.045C2.90915 148.043 2.90915 148.04 2.90915 148.038C2.90915 148.035 2.90915 148.033 2.90915 148.031C2.90915 148.028 2.90915 148.026 2.90915 148.023C2.90915 148.021 2.90915 148.019 2.90915 148.016C2.90915 148.014 2.90915 148.011 2.90915 148.009C2.90915 148.007 2.90915 148.004 2.90915 148.002C2.90915 147.999 2.90915 147.997 2.90915 147.995C2.90915 147.992 2.90915 147.99 2.90915 147.987C2.90915 147.985 2.90915 147.983 2.90915 147.98C2.90915 147.978 2.90915 147.975 2.90915 147.973C2.90915 147.97 2.90915 147.968 2.90915 147.966C2.90915 147.963 2.90915 147.961 2.90915 147.958C2.90915 147.956 2.90915 147.954 2.90915 147.951C2.90915 147.949 2.90915 147.946 2.90915 147.944C2.90915 147.942 2.90915 147.939 2.90915 147.937C2.90915 147.934 2.90915 147.932 2.90915 147.93C2.90915 147.927 2.90915 147.925 2.90915 147.922C2.90915 147.92 2.90915 147.917 2.90915 147.915C2.90915 147.913 2.90915 147.91 2.90915 147.908C2.90915 147.905 2.90915 147.903 2.90915 147.901C2.90915 147.898 2.90915 147.896 2.90915 147.893C2.90915 147.891 2.90915 147.889 2.90915 147.886C2.90915 147.884 2.90915 147.881 2.90915 147.879C2.90915 147.876 2.90915 147.874 2.90915 147.872C2.90915 147.869 2.90915 147.867 2.90915 147.864C2.90915 147.862 2.90915 147.86 2.90915 147.857C2.90915 147.855 2.90915 147.852 2.90915 147.85C2.90915 147.847 2.90915 147.845 2.90915 147.843C2.90915 147.84 2.90915 147.838 2.90915 147.835C2.90915 147.833 2.90915 147.831 2.90915 147.828C2.90915 147.826 2.90915 147.823 2.90915 147.821C2.90915 147.818 2.90915 147.816 2.90915 147.814C2.90915 147.811 2.90915 147.809 2.90915 147.806C2.90915 147.804 2.90915 147.801 2.90915 147.799C2.90915 147.797 2.90915 147.794 2.90915 147.792C2.90915 147.789 2.90915 147.787 2.90915 147.785C2.90915 147.782 2.90915 147.78 2.90915 147.777C2.90915 147.775 2.90915 147.772 2.90915 147.77C2.90915 147.768 2.90915 147.765 2.90915 147.763C2.90915 147.76 2.90915 147.758 2.90915 147.755C2.90915 147.753 2.90915 147.751 2.90915 147.748C2.90915 147.746 2.90915 147.743 2.90915 147.741C2.90915 147.738 2.90915 147.736 2.90915 147.734C2.90915 147.731 2.90915 147.729 2.90915 147.726C2.90915 147.724 2.90915 147.721 2.90915 147.719C2.90915 147.717 2.90915 147.714 2.90915 147.712C2.90915 147.709 2.90915 147.707 2.90915 147.704C2.90915 147.702 2.90915 147.7 2.90915 147.697C2.90915 147.695 2.90915 147.692 2.90915 147.69C2.90915 147.687 2.90915 147.685 2.90915 147.683C2.90915 147.68 2.90915 147.678 2.90915 147.675C2.90915 147.673 2.90915 147.67 2.90915 147.668C2.90915 147.666 2.90915 147.663 2.90915 147.661C2.90915 147.658 2.90915 147.656 2.90915 147.653C2.90915 147.651 2.90915 147.648 2.90915 147.646C2.90915 147.644 2.90915 147.641 2.90915 147.639C2.90915 147.636 2.90915 147.634 2.90915 147.631C2.90915 147.629 2.90915 147.627 2.90915 147.624C2.90915 147.622 2.90915 147.619 2.90915 147.617C2.90915 147.614 2.90915 147.612 2.90915 147.61C2.90915 147.607 2.90915 147.605 2.90915 147.602C2.90915 147.6 2.90915 147.597 2.90915 147.595C2.90915 147.592 2.90915 147.59 2.90915 147.588C2.90915 147.585 2.90915 147.583 2.90915 147.58C2.90915 147.578 2.90915 147.575 2.90915 147.573C2.90915 147.57 2.90915 147.568 2.90915 147.566C2.90915 147.563 2.90915 147.561 2.90915 147.558C2.90915 147.556 2.90915 147.553 2.90915 147.551C2.90915 147.549 2.90915 147.546 2.90915 147.544C2.90915 147.541 2.90915 147.539 2.90915 147.536C2.90915 147.534 2.90915 147.531 2.90915 147.529C2.90915 147.527 2.90915 147.524 2.90915 147.522C2.90915 147.519 2.90915 147.517 2.90915 147.514C2.90915 147.512 2.90915 147.509 2.90915 147.507C2.90915 147.504 2.90915 147.502 2.90915 147.5C2.90915 147.497 2.90915 147.495 2.90915 147.492C2.90915 147.49 2.90915 147.487 2.90915 147.485C2.90915 147.482 2.90915 147.48 2.90915 147.478C2.90915 147.475 2.90915 147.473 2.90915 147.47C2.90915 147.468 2.90915 147.465 2.90915 147.463C2.90915 147.46 2.90915 147.458 2.90915 147.456C2.90915 147.453 2.90915 147.451 2.90915 147.448C2.90915 147.446 2.90915 147.443 2.90915 147.441C2.90915 147.438 2.90915 147.436 2.90915 147.433C2.90915 147.431 2.90915 147.429 2.90915 147.426C2.90915 147.424 2.90915 147.421 2.90915 147.419C2.90915 147.416 2.90915 147.414 2.90915 147.411C2.90915 147.409 2.90915 147.406 2.90915 147.404C2.90915 147.402 2.90915 147.399 2.90915 147.397C2.90915 147.394 2.90915 147.392 2.90915 147.389C2.90915 147.387 2.90915 147.384 2.90915 147.382C2.90915 147.379 2.90915 147.377 2.90915 147.375C2.90915 147.372 2.90915 147.37 2.90915 147.367C2.90915 147.365 2.90915 147.362 2.90915 147.36C2.90915 147.357 2.90915 147.355 2.90915 147.352C2.90915 147.35 2.90915 147.347 2.90915 147.345C2.90915 147.343 2.90915 147.34 2.90915 147.338C2.90915 147.335 2.90915 147.333 2.90915 147.33C2.90915 147.328 2.90915 147.325 2.90915 147.323C2.90915 147.32 2.90915 147.318 2.90915 147.315C2.90915 147.313 2.90915 147.311 2.90915 147.308C2.90915 147.306 2.90915 147.303 2.90915 147.301C2.90915 147.298 2.90915 147.296 2.90915 147.293C2.90915 147.291 2.90915 147.288 2.90915 147.286C2.90915 147.283 2.90915 147.281 2.90915 147.279C2.90915 147.276 2.90915 147.274 2.90915 147.271C2.90915 147.269 2.90915 147.266 2.90915 147.264C2.90915 147.261 2.90915 147.259 2.90915 147.256C2.90915 147.254 2.90915 147.251 2.90915 147.249C2.90915 147.246 2.90915 147.244 2.90915 147.242C2.90915 147.239 2.90915 147.237 2.90915 147.234C2.90915 147.232 2.90915 147.229 2.90915 147.227C2.90915 147.224 2.90915 147.222 2.90915 147.219C2.90915 147.217 2.90915 147.214 2.90915 147.212C2.90915 147.209 2.90915 147.207 2.90915 147.204C2.90915 147.202 2.90915 147.2 2.90915 147.197C2.90915 147.195 2.90915 147.192 2.90915 147.19C2.90915 147.187 2.90915 147.185 2.90915 147.182C2.90915 147.18 2.90915 147.177 2.90915 147.175C2.90915 147.172 2.90915 147.17 2.90915 147.167C2.90915 147.165 2.90915 147.162 2.90915 147.16C2.90915 147.157 2.90915 147.155 2.90915 147.152C2.90915 147.15 2.90915 147.148 2.90915 147.145C2.90915 147.143 2.90915 147.14 2.90915 147.138C2.90915 147.135 2.90915 147.133 2.90915 147.13C2.90915 147.128 2.90915 147.125 2.90915 147.123C2.90915 147.12 2.90915 147.118 2.90915 147.115C2.90915 147.113 2.90915 147.11 2.90915 147.108C2.90915 147.105 2.90915 147.103 2.90915 147.1C2.90915 147.098 2.90915 147.095 2.90915 147.093C2.90915 147.091 2.90915 147.088 2.90915 147.086C2.90915 147.083 2.90915 147.081 2.90915 147.078C2.90915 147.076 2.90915 147.073 2.90915 147.071C2.90915 147.068 2.90915 147.066 2.90915 147.063C2.90915 147.061 2.90915 147.058 2.90915 147.056C2.90915 147.053 2.90915 147.051 2.90915 147.048C2.90915 147.046 2.90915 147.043 2.90915 147.041C2.90915 147.038 2.90915 147.036 2.90915 147.033C2.90915 147.031 2.90915 147.028 2.90915 147.026C2.90915 147.023 2.90915 147.021 2.90915 147.018C2.90915 147.016 2.90915 147.014 2.90915 147.011C2.90915 147.009 2.90915 147.006 2.90915 147.004C2.90915 147.001 2.90915 146.999 2.90915 146.996C2.90915 146.994 2.90915 146.991 2.90915 146.989C2.90915 146.986 2.90915 146.984 2.90915 146.981C2.90915 146.979 2.90915 146.976 2.90915 146.974C2.90915 146.971 2.90915 146.969 2.90915 146.966C2.90915 146.964 2.90915 146.961 2.90915 146.959C2.90915 146.956 2.90915 146.954 2.90915 146.951C2.90915 146.949 2.90915 146.946 2.90915 146.944C2.90915 146.941 2.90915 146.939 2.90915 146.936C2.90915 146.934 2.90915 146.931 2.90915 146.929C2.90915 146.926 2.90915 146.924 2.90915 146.921C2.90915 146.919 2.90915 146.916 2.90915 146.914C2.90915 146.911 2.90915 146.909 2.90915 146.906C2.90915 146.904 2.90915 146.901 2.90915 146.899C2.90915 146.896 2.90915 146.894 2.90915 146.891C2.90915 146.889 2.90915 146.886 2.90915 146.884C2.90915 146.881 2.90915 146.879 2.90915 146.876C2.90915 146.874 2.90915 146.871 2.90915 146.869C2.90915 146.866 2.90915 146.864 2.90915 146.861C2.90915 146.859 2.90915 146.856 2.90915 146.854C2.90915 146.851 2.90915 146.849 2.90915 146.846C2.90915 146.844 2.90915 146.841 2.90915 146.839C2.90915 146.836 2.90915 146.834 2.90915 146.831C2.90915 146.829 2.90915 146.826 2.90915 146.824C2.90915 146.821 2.90915 146.819 2.90915 146.816C2.90915 146.814 2.90915 146.811 2.90915 146.809C2.90915 146.806 2.90915 146.804 2.90915 146.801C2.90915 146.799 2.90915 146.796 2.90915 146.794C2.90915 146.791 2.90915 146.789 2.90915 146.786C2.90915 146.784 2.90915 146.781 2.90915 146.779C2.90915 146.776 2.90915 146.774 2.90915 146.771C2.90915 146.769 2.90915 146.766 2.90915 146.764C2.90915 146.761 2.90915 146.759 2.90915 146.756C2.90915 146.754 2.90915 146.751 2.90915 146.749C2.90915 146.746 2.90915 146.744 2.90915 146.741C2.90915 146.739 2.90915 146.736 2.90915 146.734C2.90915 146.731 2.90915 146.729 2.90915 146.726C2.90915 146.724 2.90915 146.721 2.90915 146.719C2.90915 146.716 2.90915 146.713 2.90915 146.711C2.90915 146.708 2.90915 146.706 2.90915 146.703C2.90915 146.701 2.90915 146.698 2.90915 146.696C2.90915 146.693 2.90915 146.691 2.90915 146.688C2.90915 146.686 2.90915 146.683 2.90915 146.681C2.90915 146.678 2.90915 146.676 2.90915 146.673C2.90915 146.671 2.90915 146.668 2.90915 146.666C2.90915 146.663 2.90915 146.661 2.90915 146.658C2.90915 146.656 2.90915 146.653 2.90915 146.651C2.90915 146.648 2.90915 146.646 2.90915 146.643C2.90915 146.641 2.90915 146.638 2.90915 146.636C2.90915 146.633 2.90915 146.63 2.90915 146.628C2.90915 146.625 2.90915 146.623 2.90915 146.62C2.90915 146.618 2.90915 146.615 2.90915 146.613C2.90915 146.61 2.90915 146.608 2.90915 146.605C2.90915 146.603 2.90915 146.6 2.90915 146.598C2.90915 146.595 2.90915 146.593 2.90915 146.59C2.90915 146.588 2.90915 146.585 2.90915 146.583C2.90915 146.58 2.90915 146.578 2.90915 146.575C2.90915 146.572 2.90915 146.57 2.90915 146.567C2.90915 146.565 2.90915 146.562 2.90915 146.56C2.90915 146.557 2.90915 146.555 2.90915 146.552C2.90915 146.55 2.90915 146.547 2.90915 146.545C2.90915 146.542 2.90915 146.54 2.90915 146.537C2.90915 146.535 2.90915 146.532 2.90915 146.53C2.90915 146.527 2.90915 146.524 2.90915 146.522C2.90915 146.519 2.90915 146.517 2.90915 146.514C2.90915 146.512 2.90915 146.509 2.90915 146.507C2.90915 146.504 2.90915 146.502 2.90915 146.499C2.90915 146.497 2.90915 146.494 2.90915 146.492C2.90915 146.489 2.90915 146.487 2.90915 146.484H0.909148C0.909148 146.487 0.909148 146.489 0.909148 146.492C0.909148 146.494 0.909148 146.497 0.909148 146.499C0.909148 146.502 0.909148 146.504 0.909148 146.507C0.909148 146.509 0.909148 146.512 0.909148 146.514C0.909148 146.517 0.909148 146.519 0.909148 146.522C0.909148 146.524 0.909148 146.527 0.909148 146.53C0.909148 146.532 0.909148 146.535 0.909148 146.537C0.909148 146.54 0.909148 146.542 0.909148 146.545C0.909148 146.547 0.909148 146.55 0.909148 146.552C0.909148 146.555 0.909148 146.557 0.909148 146.56C0.909148 146.562 0.909148 146.565 0.909148 146.567C0.909148 146.57 0.909148 146.572 0.909148 146.575C0.909148 146.578 0.909148 146.58 0.909148 146.583C0.909148 146.585 0.909148 146.588 0.909148 146.59C0.909148 146.593 0.909148 146.595 0.909148 146.598C0.909148 146.6 0.909148 146.603 0.909148 146.605C0.909148 146.608 0.909148 146.61 0.909148 146.613C0.909148 146.615 0.909148 146.618 0.909148 146.62C0.909148 146.623 0.909148 146.625 0.909148 146.628C0.909148 146.63 0.909148 146.633 0.909148 146.636C0.909148 146.638 0.909148 146.641 0.909148 146.643C0.909148 146.646 0.909148 146.648 0.909148 146.651C0.909148 146.653 0.909148 146.656 0.909148 146.658C0.909148 146.661 0.909148 146.663 0.909148 146.666C0.909148 146.668 0.909148 146.671 0.909148 146.673C0.909148 146.676 0.909148 146.678 0.909148 146.681C0.909148 146.683 0.909148 146.686 0.909148 146.688C0.909148 146.691 0.909148 146.693 0.909148 146.696C0.909148 146.698 0.909148 146.701 0.909148 146.703C0.909148 146.706 0.909148 146.708 0.909148 146.711C0.909148 146.713 0.909148 146.716 0.909148 146.719C0.909148 146.721 0.909148 146.724 0.909148 146.726C0.909148 146.729 0.909148 146.731 0.909148 146.734C0.909148 146.736 0.909148 146.739 0.909148 146.741C0.909148 146.744 0.909148 146.746 0.909148 146.749C0.909148 146.751 0.909148 146.754 0.909148 146.756C0.909148 146.759 0.909148 146.761 0.909148 146.764C0.909148 146.766 0.909148 146.769 0.909148 146.771C0.909148 146.774 0.909148 146.776 0.909148 146.779C0.909148 146.781 0.909148 146.784 0.909148 146.786C0.909148 146.789 0.909148 146.791 0.909148 146.794C0.909148 146.796 0.909148 146.799 0.909148 146.801C0.909148 146.804 0.909148 146.806 0.909148 146.809C0.909148 146.811 0.909148 146.814 0.909148 146.816C0.909148 146.819 0.909148 146.821 0.909148 146.824C0.909148 146.826 0.909148 146.829 0.909148 146.831C0.909148 146.834 0.909148 146.836 0.909148 146.839C0.909148 146.841 0.909148 146.844 0.909148 146.846C0.909148 146.849 0.909148 146.851 0.909148 146.854C0.909148 146.856 0.909148 146.859 0.909148 146.861C0.909148 146.864 0.909148 146.866 0.909148 146.869C0.909148 146.871 0.909148 146.874 0.909148 146.876C0.909148 146.879 0.909148 146.881 0.909148 146.884C0.909148 146.886 0.909148 146.889 0.909148 146.891C0.909148 146.894 0.909148 146.896 0.909148 146.899C0.909148 146.901 0.909148 146.904 0.909148 146.906C0.909148 146.909 0.909148 146.911 0.909148 146.914C0.909148 146.916 0.909148 146.919 0.909148 146.921C0.909148 146.924 0.909148 146.926 0.909148 146.929C0.909148 146.931 0.909148 146.934 0.909148 146.936C0.909148 146.939 0.909148 146.941 0.909148 146.944C0.909148 146.946 0.909148 146.949 0.909148 146.951C0.909148 146.954 0.909148 146.956 0.909148 146.959C0.909148 146.961 0.909148 146.964 0.909148 146.966C0.909148 146.969 0.909148 146.971 0.909148 146.974C0.909148 146.976 0.909148 146.979 0.909148 146.981C0.909148 146.984 0.909148 146.986 0.909148 146.989C0.909148 146.991 0.909148 146.994 0.909148 146.996C0.909148 146.999 0.909148 147.001 0.909148 147.004C0.909148 147.006 0.909148 147.009 0.909148 147.011C0.909148 147.014 0.909148 147.016 0.909148 147.018C0.909148 147.021 0.909148 147.023 0.909148 147.026C0.909148 147.028 0.909148 147.031 0.909148 147.033C0.909148 147.036 0.909148 147.038 0.909148 147.041C0.909148 147.043 0.909148 147.046 0.909148 147.048C0.909148 147.051 0.909148 147.053 0.909148 147.056C0.909148 147.058 0.909148 147.061 0.909148 147.063C0.909148 147.066 0.909148 147.068 0.909148 147.071C0.909148 147.073 0.909148 147.076 0.909148 147.078C0.909148 147.081 0.909148 147.083 0.909148 147.086C0.909148 147.088 0.909148 147.091 0.909148 147.093C0.909148 147.095 0.909148 147.098 0.909148 147.1C0.909148 147.103 0.909148 147.105 0.909148 147.108C0.909148 147.11 0.909148 147.113 0.909148 147.115C0.909148 147.118 0.909148 147.12 0.909148 147.123C0.909148 147.125 0.909148 147.128 0.909148 147.13C0.909148 147.133 0.909148 147.135 0.909148 147.138C0.909148 147.14 0.909148 147.143 0.909148 147.145C0.909148 147.148 0.909148 147.15 0.909148 147.152C0.909148 147.155 0.909148 147.157 0.909148 147.16C0.909148 147.162 0.909148 147.165 0.909148 147.167C0.909148 147.17 0.909148 147.172 0.909148 147.175C0.909148 147.177 0.909148 147.18 0.909148 147.182C0.909148 147.185 0.909148 147.187 0.909148 147.19C0.909148 147.192 0.909148 147.195 0.909148 147.197C0.909148 147.2 0.909148 147.202 0.909148 147.204C0.909148 147.207 0.909148 147.209 0.909148 147.212C0.909148 147.214 0.909148 147.217 0.909148 147.219C0.909148 147.222 0.909148 147.224 0.909148 147.227C0.909148 147.229 0.909148 147.232 0.909148 147.234C0.909148 147.237 0.909148 147.239 0.909148 147.242C0.909148 147.244 0.909148 147.246 0.909148 147.249C0.909148 147.251 0.909148 147.254 0.909148 147.256C0.909148 147.259 0.909148 147.261 0.909148 147.264C0.909148 147.266 0.909148 147.269 0.909148 147.271C0.909148 147.274 0.909148 147.276 0.909148 147.279C0.909148 147.281 0.909148 147.283 0.909148 147.286C0.909148 147.288 0.909148 147.291 0.909148 147.293C0.909148 147.296 0.909148 147.298 0.909148 147.301C0.909148 147.303 0.909148 147.306 0.909148 147.308C0.909148 147.311 0.909148 147.313 0.909148 147.315C0.909148 147.318 0.909148 147.32 0.909148 147.323C0.909148 147.325 0.909148 147.328 0.909148 147.33C0.909148 147.333 0.909148 147.335 0.909148 147.338C0.909148 147.34 0.909148 147.343 0.909148 147.345C0.909148 147.347 0.909148 147.35 0.909148 147.352C0.909148 147.355 0.909148 147.357 0.909148 147.36C0.909148 147.362 0.909148 147.365 0.909148 147.367C0.909148 147.37 0.909148 147.372 0.909148 147.375C0.909148 147.377 0.909148 147.379 0.909148 147.382C0.909148 147.384 0.909148 147.387 0.909148 147.389C0.909148 147.392 0.909148 147.394 0.909148 147.397C0.909148 147.399 0.909148 147.402 0.909148 147.404C0.909148 147.406 0.909148 147.409 0.909148 147.411C0.909148 147.414 0.909148 147.416 0.909148 147.419C0.909148 147.421 0.909148 147.424 0.909148 147.426C0.909148 147.429 0.909148 147.431 0.909148 147.433C0.909148 147.436 0.909148 147.438 0.909148 147.441C0.909148 147.443 0.909148 147.446 0.909148 147.448C0.909148 147.451 0.909148 147.453 0.909148 147.456C0.909148 147.458 0.909148 147.46 0.909148 147.463C0.909148 147.465 0.909148 147.468 0.909148 147.47C0.909148 147.473 0.909148 147.475 0.909148 147.478C0.909148 147.48 0.909148 147.482 0.909148 147.485C0.909148 147.487 0.909148 147.49 0.909148 147.492C0.909148 147.495 0.909148 147.497 0.909148 147.5C0.909148 147.502 0.909148 147.504 0.909148 147.507C0.909148 147.509 0.909148 147.512 0.909148 147.514C0.909148 147.517 0.909148 147.519 0.909148 147.522C0.909148 147.524 0.909148 147.527 0.909148 147.529C0.909148 147.531 0.909148 147.534 0.909148 147.536C0.909148 147.539 0.909148 147.541 0.909148 147.544C0.909148 147.546 0.909148 147.549 0.909148 147.551C0.909148 147.553 0.909148 147.556 0.909148 147.558C0.909148 147.561 0.909148 147.563 0.909148 147.566C0.909148 147.568 0.909148 147.57 0.909148 147.573C0.909148 147.575 0.909148 147.578 0.909148 147.58C0.909148 147.583 0.909148 147.585 0.909148 147.588C0.909148 147.59 0.909148 147.592 0.909148 147.595C0.909148 147.597 0.909148 147.6 0.909148 147.602C0.909148 147.605 0.909148 147.607 0.909148 147.61C0.909148 147.612 0.909148 147.614 0.909148 147.617C0.909148 147.619 0.909148 147.622 0.909148 147.624C0.909148 147.627 0.909148 147.629 0.909148 147.631C0.909148 147.634 0.909148 147.636 0.909148 147.639C0.909148 147.641 0.909148 147.644 0.909148 147.646C0.909148 147.648 0.909148 147.651 0.909148 147.653C0.909148 147.656 0.909148 147.658 0.909148 147.661C0.909148 147.663 0.909148 147.666 0.909148 147.668C0.909148 147.67 0.909148 147.673 0.909148 147.675C0.909148 147.678 0.909148 147.68 0.909148 147.683C0.909148 147.685 0.909148 147.687 0.909148 147.69C0.909148 147.692 0.909148 147.695 0.909148 147.697C0.909148 147.7 0.909148 147.702 0.909148 147.704C0.909148 147.707 0.909148 147.709 0.909148 147.712C0.909148 147.714 0.909148 147.717 0.909148 147.719C0.909148 147.721 0.909148 147.724 0.909148 147.726C0.909148 147.729 0.909148 147.731 0.909148 147.734C0.909148 147.736 0.909148 147.738 0.909148 147.741C0.909148 147.743 0.909148 147.746 0.909148 147.748C0.909148 147.751 0.909148 147.753 0.909148 147.755C0.909148 147.758 0.909148 147.76 0.909148 147.763C0.909148 147.765 0.909148 147.768 0.909148 147.77C0.909148 147.772 0.909148 147.775 0.909148 147.777C0.909148 147.78 0.909148 147.782 0.909148 147.785C0.909148 147.787 0.909148 147.789 0.909148 147.792C0.909148 147.794 0.909148 147.797 0.909148 147.799C0.909148 147.801 0.909148 147.804 0.909148 147.806C0.909148 147.809 0.909148 147.811 0.909148 147.814C0.909148 147.816 0.909148 147.818 0.909148 147.821C0.909148 147.823 0.909148 147.826 0.909148 147.828C0.909148 147.831 0.909148 147.833 0.909148 147.835C0.909148 147.838 0.909148 147.84 0.909148 147.843C0.909148 147.845 0.909148 147.847 0.909148 147.85C0.909148 147.852 0.909148 147.855 0.909148 147.857C0.909148 147.86 0.909148 147.862 0.909148 147.864C0.909148 147.867 0.909148 147.869 0.909148 147.872C0.909148 147.874 0.909148 147.876 0.909148 147.879C0.909148 147.881 0.909148 147.884 0.909148 147.886C0.909148 147.889 0.909148 147.891 0.909148 147.893C0.909148 147.896 0.909148 147.898 0.909148 147.901C0.909148 147.903 0.909148 147.905 0.909148 147.908C0.909148 147.91 0.909148 147.913 0.909148 147.915C0.909148 147.917 0.909148 147.92 0.909148 147.922C0.909148 147.925 0.909148 147.927 0.909148 147.93C0.909148 147.932 0.909148 147.934 0.909148 147.937C0.909148 147.939 0.909148 147.942 0.909148 147.944C0.909148 147.946 0.909148 147.949 0.909148 147.951C0.909148 147.954 0.909148 147.956 0.909148 147.958C0.909148 147.961 0.909148 147.963 0.909148 147.966C0.909148 147.968 0.909148 147.97 0.909148 147.973C0.909148 147.975 0.909148 147.978 0.909148 147.98C0.909148 147.983 0.909148 147.985 0.909148 147.987C0.909148 147.99 0.909148 147.992 0.909148 147.995C0.909148 147.997 0.909148 147.999 0.909148 148.002C0.909148 148.004 0.909148 148.007 0.909148 148.009C0.909148 148.011 0.909148 148.014 0.909148 148.016C0.909148 148.019 0.909148 148.021 0.909148 148.023C0.909148 148.026 0.909148 148.028 0.909148 148.031C0.909148 148.033 0.909148 148.035 0.909148 148.038C0.909148 148.04 0.909148 148.043 0.909148 148.045C0.909148 148.047 0.909148 148.05 0.909148 148.052C0.909148 148.055 0.909148 148.057 0.909148 148.059C0.909148 148.062 0.909148 148.064 0.909148 148.067C0.909148 148.069 0.909148 148.071 0.909148 148.074C0.909148 148.076 0.909148 148.079 0.909148 148.081C0.909148 148.083 0.909148 148.086 0.909148 148.088C0.909148 148.091 0.909148 148.093 0.909148 148.095C0.909148 148.098 0.909148 148.1 0.909148 148.103C0.909148 148.105 0.909148 148.107 0.909148 148.11C0.909148 148.112 0.909148 148.115 0.909148 148.117C0.909148 148.119 0.909148 148.122 0.909148 148.124C0.909148 148.127 0.909148 148.129 0.909148 148.131C0.909148 148.134 0.909148 148.136 0.909148 148.138C0.909148 148.141 0.909148 148.143 0.909148 148.146C0.909148 148.148 0.909148 148.15 0.909148 148.153C0.909148 148.155 0.909148 148.158 0.909148 148.16C0.909148 148.162 0.909148 148.165 0.909148 148.167C0.909148 148.17 0.909148 148.172 0.909148 148.174C0.909148 148.177 0.909148 148.179 0.909148 148.182C0.909148 148.184 0.909148 148.186 0.909148 148.189C0.909148 148.191 0.909148 148.193 0.909148 148.196C0.909148 148.198 0.909148 148.201 0.909148 148.203C0.909148 148.205 0.909148 148.208 0.909148 148.21C0.909148 148.213 0.909148 148.215 0.909148 148.217C0.909148 148.22 0.909148 148.222 0.909148 148.224C0.909148 148.227 0.909148 148.229 0.909148 148.232C0.909148 148.234 0.909148 148.236 0.909148 148.239C0.909148 148.241 0.909148 148.244 0.909148 148.246C0.909148 148.248 0.909148 148.251 0.909148 148.253C0.909148 148.255 0.909148 148.258 0.909148 148.26C0.909148 148.263 0.909148 148.265 0.909148 148.267C0.909148 148.27 0.909148 148.272 0.909148 148.275C0.909148 148.277 0.909148 148.279 0.909148 148.282C0.909148 148.284 0.909148 148.286 0.909148 148.289C0.909148 148.291 0.909148 148.294 0.909148 148.296C0.909148 148.298 0.909148 148.301 0.909148 148.303C0.909148 148.305 0.909148 148.308 0.909148 148.31C0.909148 148.313 0.909148 148.315 0.909148 148.317C0.909148 148.32 0.909148 148.322 0.909148 148.324C0.909148 148.327 0.909148 148.329 0.909148 148.332C0.909148 148.334 0.909148 148.336 0.909148 148.339C0.909148 148.341 0.909148 148.344 0.909148 148.346C0.909148 148.348 0.909148 148.351 0.909148 148.353C0.909148 148.355 0.909148 148.358 0.909148 148.36C0.909148 148.363 0.909148 148.365 0.909148 148.367C0.909148 148.37 0.909148 148.372 0.909148 148.374C0.909148 148.377 0.909148 148.379 0.909148 148.381C0.909148 148.384 0.909148 148.386 0.909148 148.389C0.909148 148.391 0.909148 148.393 0.909148 148.396C0.909148 148.398 0.909148 148.4 0.909148 148.403C0.909148 148.405 0.909148 148.408 0.909148 148.41C0.909148 148.412 0.909148 148.415 0.909148 148.417C0.909148 148.419 0.909148 148.422 0.909148 148.424C0.909148 148.427 0.909148 148.429 0.909148 148.431C0.909148 148.434 0.909148 148.436 0.909148 148.438C0.909148 148.441 0.909148 148.443 0.909148 148.445C0.909148 148.448 0.909148 148.45 0.909148 148.453C0.909148 148.455 0.909148 148.457 0.909148 148.46C0.909148 148.462 0.909148 148.464 0.909148 148.467C0.909148 148.469 0.909148 148.471 0.909148 148.474C0.909148 148.476 0.909148 148.479 0.909148 148.481C0.909148 148.483 0.909148 148.486 0.909148 148.488C0.909148 148.49 0.909148 148.493 0.909148 148.495C0.909148 148.497 0.909148 148.5 0.909148 148.502C0.909148 148.505 0.909148 148.507 0.909148 148.509C0.909148 148.512 0.909148 148.514 0.909148 148.516C0.909148 148.519 0.909148 148.521 0.909148 148.523C0.909148 148.526 0.909148 148.528 0.909148 148.53C0.909148 148.533 0.909148 148.535 0.909148 148.538C0.909148 148.54 0.909148 148.542 0.909148 148.545C0.909148 148.547 0.909148 148.549 0.909148 148.552C0.909148 148.554 0.909148 148.556 0.909148 148.559C0.909148 148.561 0.909148 148.564 0.909148 148.566C0.909148 148.568 0.909148 148.571 0.909148 148.573C0.909148 148.575 0.909148 148.578 0.909148 148.58C0.909148 148.582 0.909148 148.585 0.909148 148.587C0.909148 148.589 0.909148 148.592 0.909148 148.594C0.909148 148.596 0.909148 148.599 0.909148 148.601C0.909148 148.604 0.909148 148.606 0.909148 148.608C0.909148 148.611 0.909148 148.613 0.909148 148.615C0.909148 148.618 0.909148 148.62 0.909148 148.622C0.909148 148.625 0.909148 148.627 0.909148 148.629C0.909148 148.632 0.909148 148.634 0.909148 148.636C0.909148 148.639 0.909148 148.641 0.909148 148.643C0.909148 148.646 0.909148 148.648 0.909148 148.651C0.909148 148.653 0.909148 148.655 0.909148 148.658C0.909148 148.66 0.909148 148.662 0.909148 148.665C0.909148 148.667 0.909148 148.669 0.909148 148.672C0.909148 148.674 0.909148 148.676 0.909148 148.679C0.909148 148.681 0.909148 148.683 0.909148 148.686C0.909148 148.688 0.909148 148.69 0.909148 148.693C0.909148 148.695 0.909148 148.697 0.909148 148.7C0.909148 148.702 0.909148 148.704 0.909148 148.707C0.909148 148.709 0.909148 148.712 0.909148 148.714C0.909148 148.716 0.909148 148.719 0.909148 148.721C0.909148 148.723 0.909148 148.726 0.909148 148.728C0.909148 148.73 0.909148 148.733 0.909148 148.735C0.909148 148.737 0.909148 148.74 0.909148 148.742C0.909148 148.744 0.909148 148.747 0.909148 148.749C0.909148 148.751 0.909148 148.754 0.909148 148.756C0.909148 148.758 0.909148 148.761 0.909148 148.763C0.909148 148.765 0.909148 148.768 0.909148 148.77C0.909148 148.772 0.909148 148.775 0.909148 148.777C0.909148 148.779 0.909148 148.782 0.909148 148.784C0.909148 148.786 0.909148 148.789 0.909148 148.791C0.909148 148.793 0.909148 148.796 0.909148 148.798C0.909148 148.8 0.909148 148.803 0.909148 148.805C0.909148 148.807 0.909148 148.81 0.909148 148.812C0.909148 148.814 0.909148 148.817 0.909148 148.819C0.909148 148.821 0.909148 148.824 0.909148 148.826C0.909148 148.828 0.909148 148.831 0.909148 148.833C0.909148 148.835 0.909148 148.838 0.909148 148.84C0.909148 148.842 0.909148 148.845 0.909148 148.847C0.909148 148.849 0.909148 148.852 0.909148 148.854C0.909148 148.856 0.909148 148.859 0.909148 148.861C0.909148 148.863 0.909148 148.866 0.909148 148.868C0.909148 148.87 0.909148 148.873 0.909148 148.875C0.909148 148.877 0.909148 148.88 0.909148 148.882C0.909148 148.884 0.909148 148.887 0.909148 148.889C0.909148 148.891 0.909148 148.894 0.909148 148.896C0.909148 148.898 0.909148 148.901 0.909148 148.903C0.909148 148.905 0.909148 148.908 0.909148 148.91C0.909148 148.912 0.909148 148.915 0.909148 148.917C0.909148 148.919 0.909148 148.922 0.909148 148.924C0.909148 148.926 0.909148 148.929 0.909148 148.931C0.909148 148.933 0.909148 148.935 0.909148 148.938C0.909148 148.94 0.909148 148.942 0.909148 148.945C0.909148 148.947 0.909148 148.949 0.909148 148.952C0.909148 148.954 0.909148 148.956 0.909148 148.959C0.909148 148.961 0.909148 148.963 0.909148 148.966C0.909148 148.968 0.909148 148.97 0.909148 148.973C0.909148 148.975 0.909148 148.977 0.909148 148.98C0.909148 148.982 0.909148 148.984 0.909148 148.987C0.909148 148.989 0.909148 148.991 0.909148 148.994C0.909148 148.996 0.909148 148.998 0.909148 149C0.909148 149.003 0.909148 149.005 0.909148 149.007C0.909148 149.01 0.909148 149.012 0.909148 149.014C0.909148 149.017 0.909148 149.019 0.909148 149.021C0.909148 149.024 0.909148 149.026 0.909148 149.028C0.909148 149.031 0.909148 149.033 0.909148 149.035C0.909148 149.038 0.909148 149.04 0.909148 149.042C0.909148 149.044 0.909148 149.047 0.909148 149.049C0.909148 149.051 0.909148 149.054 0.909148 149.056C0.909148 149.058 0.909148 149.061 0.909148 149.063C0.909148 149.065 0.909148 149.068 0.909148 149.07C0.909148 149.072 0.909148 149.075 0.909148 149.077C0.909148 149.079 0.909148 149.081 0.909148 149.084C0.909148 149.086 0.909148 149.088 0.909148 149.091C0.909148 149.093 0.909148 149.095 0.909148 149.098C0.909148 149.1 0.909148 149.102 0.909148 149.105C0.909148 149.107 0.909148 149.109 0.909148 149.111C0.909148 149.114 0.909148 149.116 0.909148 149.118C0.909148 149.121 0.909148 149.123 0.909148 149.125C0.909148 149.128 0.909148 149.13 0.909148 149.132C0.909148 149.135 0.909148 149.137 0.909148 149.139C0.909148 149.141 0.909148 149.144 0.909148 149.146C0.909148 149.148 0.909148 149.151 0.909148 149.153C0.909148 149.155 0.909148 149.158 0.909148 149.16C0.909148 149.162 0.909148 149.164 0.909148 149.167C0.909148 149.169 0.909148 149.171 0.909148 149.174C0.909148 149.176 0.909148 149.178 0.909148 149.181C0.909148 149.183 0.909148 149.185 0.909148 149.187C0.909148 149.19 0.909148 149.192 0.909148 149.194C0.909148 149.197 0.909148 149.199 0.909148 149.201C0.909148 149.204 0.909148 149.206 0.909148 149.208C0.909148 149.21 0.909148 149.213 0.909148 149.215C0.909148 149.217 0.909148 149.22 0.909148 149.222C0.909148 149.224 0.909148 149.227 0.909148 149.229C0.909148 149.231 0.909148 149.233 0.909148 149.236C0.909148 149.238 0.909148 149.24 0.909148 149.243C0.909148 149.245 0.909148 149.247 0.909148 149.25C0.909148 149.252 0.909148 149.254 0.909148 149.256C0.909148 149.259 0.909148 149.261 0.909148 149.263C0.909148 149.266 0.909148 149.268 0.909148 149.27C0.909148 149.272 0.909148 149.275 0.909148 149.277C0.909148 149.279 0.909148 149.282 0.909148 149.284C0.909148 149.286 0.909148 149.289 0.909148 149.291C0.909148 149.293 0.909148 149.295 0.909148 149.298C0.909148 149.3 0.909148 149.302 0.909148 149.305C0.909148 149.307 0.909148 149.309 0.909148 149.311C0.909148 149.314 0.909148 149.316 0.909148 149.318C0.909148 149.321 0.909148 149.323 0.909148 149.325C0.909148 149.327 0.909148 149.33 0.909148 149.332C0.909148 149.334 0.909148 149.337 0.909148 149.339C0.909148 149.341 0.909148 149.343 0.909148 149.346C0.909148 149.348 0.909148 149.35 0.909148 149.353C0.909148 149.355 0.909148 149.357 0.909148 149.359C0.909148 149.362 0.909148 149.364 0.909148 149.366C0.909148 149.369 0.909148 149.371 0.909148 149.373C0.909148 149.375 0.909148 149.378 0.909148 149.38C0.909148 149.382 0.909148 149.385 0.909148 149.387C0.909148 149.389 0.909148 149.391 0.909148 149.394C0.909148 149.396 0.909148 149.398 0.909148 149.401C0.909148 149.403 0.909148 149.405 0.909148 149.407C0.909148 149.41 0.909148 149.412 0.909148 149.414C0.909148 149.417 0.909148 149.419 0.909148 149.421C0.909148 149.423 0.909148 149.426 0.909148 149.428C0.909148 149.43 0.909148 149.432 0.909148 149.435C0.909148 149.437 0.909148 149.439 0.909148 149.442C0.909148 149.444 0.909148 149.446 0.909148 149.448C0.909148 149.451 0.909148 149.453 0.909148 149.455C0.909148 149.458 0.909148 149.46 0.909148 149.462C0.909148 149.464 0.909148 149.467 0.909148 149.469C0.909148 149.471 0.909148 149.473 0.909148 149.476C0.909148 149.478 0.909148 149.48 0.909148 149.483C0.909148 149.485 0.909148 149.487 0.909148 149.489C0.909148 149.492 0.909148 149.494 0.909148 149.496C0.909148 149.498 0.909148 149.501 0.909148 149.503C0.909148 149.505 0.909148 149.508 0.909148 149.51C0.909148 149.512 0.909148 149.514 0.909148 149.517C0.909148 149.519 0.909148 149.521 0.909148 149.523C0.909148 149.526 0.909148 149.528 0.909148 149.53C0.909148 149.533 0.909148 149.535 0.909148 149.537C0.909148 149.539 0.909148 149.542 0.909148 149.544C0.909148 149.546 0.909148 149.548 0.909148 149.551C0.909148 149.553 0.909148 149.555 0.909148 149.558C0.909148 149.56 0.909148 149.562 0.909148 149.564C0.909148 149.567 0.909148 149.569 0.909148 149.571C0.909148 149.573 0.909148 149.576 0.909148 149.578C0.909148 149.58 0.909148 149.582 0.909148 149.585C0.909148 149.587 0.909148 149.589 0.909148 149.592C0.909148 149.594 0.909148 149.596 0.909148 149.598C0.909148 149.601 0.909148 149.603 0.909148 149.605C0.909148 149.607 0.909148 149.61 0.909148 149.612C0.909148 149.614 0.909148 149.616 0.909148 149.619C0.909148 149.621 0.909148 149.623 0.909148 149.625C0.909148 149.628 0.909148 149.63 0.909148 149.632C0.909148 149.634 0.909148 149.637 0.909148 149.639C0.909148 149.641 0.909148 149.644 0.909148 149.646C0.909148 149.648 0.909148 149.65 0.909148 149.653C0.909148 149.655 0.909148 149.657 0.909148 149.659C0.909148 149.662 0.909148 149.664 0.909148 149.666C0.909148 149.668 0.909148 149.671 0.909148 149.673C0.909148 149.675 0.909148 149.677 0.909148 149.68C0.909148 149.682 0.909148 149.684 0.909148 149.686C0.909148 149.689 0.909148 149.691 0.909148 149.693C0.909148 149.695 0.909148 149.698 0.909148 149.7C0.909148 149.702 0.909148 149.704 0.909148 149.707C0.909148 149.709 0.909148 149.711 0.909148 149.713C0.909148 149.716 0.909148 149.718 0.909148 149.72C0.909148 149.722 0.909148 149.725 0.909148 149.727C0.909148 149.729 0.909148 149.731 0.909148 149.734C0.909148 149.736 0.909148 149.738 0.909148 149.74C0.909148 149.743 0.909148 149.745 0.909148 149.747C0.909148 149.749 0.909148 149.752 0.909148 149.754C0.909148 149.756 0.909148 149.758 0.909148 149.761C0.909148 149.763 0.909148 149.765 0.909148 149.767C0.909148 149.77 0.909148 149.772 0.909148 149.774C0.909148 149.776 0.909148 149.779 0.909148 149.781C0.909148 149.783 0.909148 149.785 0.909148 149.788C0.909148 149.79 0.909148 149.792 0.909148 149.794C0.909148 149.797 0.909148 149.799 0.909148 149.801C0.909148 149.803 0.909148 149.806 0.909148 149.808C0.909148 149.81 0.909148 149.812 0.909148 149.815C0.909148 149.817 0.909148 149.819 0.909148 149.821C0.909148 149.824 0.909148 149.826 0.909148 149.828C0.909148 149.83 0.909148 149.833 0.909148 149.835C0.909148 149.837 0.909148 149.839 0.909148 149.842C0.909148 149.844 0.909148 149.846 0.909148 149.848C0.909148 149.851 0.909148 149.853 0.909148 149.855C0.909148 149.857 0.909148 149.859 0.909148 149.862C0.909148 149.864 0.909148 149.866 0.909148 149.868C0.909148 149.871 0.909148 149.873 0.909148 149.875C0.909148 149.877 0.909148 149.88 0.909148 149.882C0.909148 149.884 0.909148 149.886 0.909148 149.889C0.909148 149.891 0.909148 149.893 0.909148 149.895C0.909148 149.898 0.909148 149.9 0.909148 149.902C0.909148 149.904 0.909148 149.906 0.909148 149.909C0.909148 149.911 0.909148 149.913 0.909148 149.915C0.909148 149.918 0.909148 149.92 0.909148 149.922C0.909148 149.924 0.909148 149.927 0.909148 149.929C0.909148 149.931 0.909148 149.933 0.909148 149.936C0.909148 149.938 0.909148 149.94 0.909148 149.942C0.909148 149.944 0.909148 149.947 0.909148 149.949C0.909148 149.951 0.909148 149.953 0.909148 149.956C0.909148 149.958 0.909148 149.96 0.909148 149.962C0.909148 149.965 0.909148 149.967 0.909148 149.969C0.909148 149.971 0.909148 149.973 0.909148 149.976C0.909148 149.978 0.909148 149.98 0.909148 149.982C0.909148 149.985 0.909148 149.987 0.909148 149.989C0.909148 149.991 0.909148 149.994 0.909148 149.996C0.909148 149.998 0.909148 150 0.909148 150.002C0.909148 150.005 0.909148 150.007 0.909148 150.009C0.909148 150.011 0.909148 150.014 0.909148 150.016C0.909148 150.018 0.909148 150.02 0.909148 150.022C0.909148 150.025 0.909148 150.027 0.909148 150.029C0.909148 150.031 0.909148 150.034 0.909148 150.036C0.909148 150.038 0.909148 150.04 0.909148 150.042C0.909148 150.045 0.909148 150.047 0.909148 150.049C0.909148 150.051 0.909148 150.054 0.909148 150.056C0.909148 150.058 0.909148 150.06 0.909148 150.062C0.909148 150.065 0.909148 150.067 0.909148 150.069C0.909148 150.071 0.909148 150.074 0.909148 150.076C0.909148 150.078 0.909148 150.08 0.909148 150.082C0.909148 150.085 0.909148 150.087 0.909148 150.089C0.909148 150.091 0.909148 150.094 0.909148 150.096C0.909148 150.098 0.909148 150.1 0.909148 150.102C0.909148 150.105 0.909148 150.107 0.909148 150.109C0.909148 150.111 0.909148 150.113 0.909148 150.116C0.909148 150.118 0.909148 150.12 0.909148 150.122C0.909148 150.125 0.909148 150.127 0.909148 150.129H2.90915ZM2.90143 146.608C3.05752 145.359 3.2859 144.398 3.56663 143.696L1.70967 142.954C1.3424 143.872 1.08478 145.017 0.916871 146.36L2.90143 146.608ZM3.60188 143.592L38.5939 17.2319L36.6664 16.6981L1.67442 143.058L3.60188 143.592ZM38.6045 17.1898C39.5318 13.1718 41.3652 10.515 44.0126 9.02813C46.689 7.52496 50.3731 7.1172 55.1917 7.98612L55.5466 6.01787C50.4832 5.10479 46.2698 5.46652 43.0332 7.28434C39.7676 9.11845 37.6725 12.3341 36.6558 16.7401L38.6045 17.1898ZM55.1596 7.9798C59.5601 8.92276 62.5416 10.6179 64.2892 12.948L65.8892 11.748C63.7487 8.89412 60.2502 7.02522 55.5787 6.02419L55.1596 7.9798ZM64.3335 13.0029C66.1532 15.1027 66.6588 17.9605 65.5842 21.7984L67.5101 22.3376C68.7035 18.0755 68.2371 14.4533 65.8448 11.6931L64.3335 13.0029ZM67.2543 22.7751L67.4973 22.5321L66.083 21.1179L65.84 21.3609L67.2543 22.7751ZM65.8265 21.558L33.5075 138.198L35.4348 138.732L67.7538 22.092L65.8265 21.558ZM34.4712 139.465H76.5102V137.465H34.4712V139.465ZM77.5102 138.465V15.507H75.5102V138.465H77.5102ZM77.5102 15.507C77.5102 11.8282 78.6124 9.23327 80.6712 7.52939C82.7663 5.79551 86.0191 4.84299 90.6042 4.84299V2.84299C85.7932 2.84299 81.999 3.83448 79.3961 5.9886C76.757 8.17271 75.5102 11.4098 75.5102 15.507H77.5102ZM90.6042 4.84299C95.3573 4.84299 98.7371 5.798 100.914 7.53986C103.049 9.24764 104.184 11.8397 104.184 15.507H106.184C106.184 11.3983 104.889 8.15835 102.164 5.97812C99.4812 3.83199 95.571 2.84299 90.6042 2.84299V4.84299ZM104.184 15.507V138.465H106.184V15.507H104.184ZM105.184 139.465H116.119V137.465H105.184V139.465ZM116.119 139.465C119.14 139.465 121.218 140.398 122.56 142.118C123.937 143.883 124.675 146.65 124.596 150.595L126.596 150.635C126.679 146.48 125.919 143.172 124.137 140.887C122.319 138.557 119.579 137.465 116.119 137.465V139.465ZM124.597 150.575C124.439 154.528 123.591 157.323 122.195 159.112C120.838 160.852 118.866 161.765 116.119 161.765V163.765C119.366 163.765 121.97 162.653 123.772 160.343C125.536 158.082 126.429 154.802 126.595 150.655L124.597 150.575ZM116.119 161.765H105.184V163.765H116.119V161.765ZM104.184 162.765V190.467H106.184V162.765H104.184ZM104.184 190.467C104.184 194.046 103.054 196.576 100.922 198.246C98.7442 199.952 95.3609 200.888 90.6042 200.888V202.888C95.5674 202.888 99.4741 201.921 102.156 199.82C104.884 197.683 106.184 194.502 106.184 190.467H104.184ZM90.6042 200.888C86.0153 200.888 82.7591 199.954 80.6632 198.256C78.6076 196.59 77.5102 194.058 77.5102 190.467H75.5102C75.5102 194.49 76.7617 197.668 79.4041 199.81C82.0062 201.918 85.797 202.888 90.6042 202.888V200.888ZM77.5102 190.467V162.765H75.5102V190.467H77.5102ZM76.5102 161.765H17.7041V163.765H76.5102V161.765ZM225.562 86.22L224.606 86.5141L224.61 86.5252L224.613 86.5362L225.562 86.22ZM223.132 80.388L222.253 80.8643L222.254 80.8668L223.132 80.388ZM181.093 80.388L180.229 79.8841L180.218 79.9045L180.207 79.9254L181.093 80.388ZM164.083 60.948L163.515 60.1252L163.508 60.1302L164.083 60.948ZM240.142 60.705L239.552 61.5124L240.154 61.9521L240.747 61.5012L240.142 60.705ZM252.778 53.901L252.472 52.9489L252.462 52.9523L252.778 53.901ZM315.715 60.948L315.132 61.7607L315.145 61.7694L315.157 61.7777L315.715 60.948ZM301.135 85.977L300.161 86.2019L300.161 86.2019L301.135 85.977ZM298.462 80.145L299.169 79.4379L297.653 80.7332L298.462 80.145ZM298.705 80.388L297.998 81.0951L299.557 79.8639L298.705 80.388ZM293.845 76.014L293.398 76.9084L293.429 76.9238L293.461 76.9371L293.845 76.014ZM256.666 80.388L257.527 80.8967L257.537 80.8807L257.545 80.8643L256.666 80.388ZM227.534 92.295C227.534 90.0845 227.194 87.9526 226.511 85.9038L224.613 86.5362C225.227 88.3754 225.534 90.2935 225.534 92.295H227.534ZM226.518 85.9259C225.852 83.7613 225.017 81.7547 224.01 79.9091L222.254 80.8668C223.192 82.5853 223.976 84.4667 224.606 86.5141L226.518 85.9259ZM224.011 79.9117C221.652 75.5553 216.817 73.556 210.01 73.556V75.556C216.488 75.556 220.401 77.4447 222.253 80.8643L224.011 79.9117ZM210.01 73.556H194.458V75.556H210.01V73.556ZM194.458 73.556C187.645 73.556 182.753 75.5572 180.229 79.8841L181.957 80.8919C183.969 77.4428 187.987 75.556 194.458 75.556V73.556ZM180.207 79.9254C178.188 83.7946 177.177 87.9223 177.177 92.295H179.177C179.177 88.2437 180.11 84.4334 181.98 80.8506L180.207 79.9254ZM177.177 92.295V188.523H179.177V92.295H177.177ZM177.177 188.523C177.177 192.131 176.129 194.668 174.186 196.329C172.213 198.014 169.148 198.944 164.812 198.944V200.944C169.386 200.944 173.003 199.97 175.486 197.849C177.998 195.702 179.177 192.529 179.177 188.523H177.177ZM164.812 198.944C160.307 198.944 157.115 198.011 155.06 196.317C153.042 194.653 151.961 192.12 151.961 188.523H149.961C149.961 192.54 151.189 195.717 153.788 197.86C156.35 199.973 160.083 200.944 164.812 200.944V198.944ZM151.961 188.523V90.108H149.961V188.523H151.961ZM151.961 90.108C151.961 77.0609 156.242 67.6888 164.659 61.7658L163.508 60.1302C154.429 66.5192 149.961 76.5871 149.961 90.108H151.961ZM164.652 61.7707C173.442 55.6973 181.914 52.714 190.084 52.714V50.714C181.406 50.714 172.544 53.8867 163.515 60.1253L164.652 61.7707ZM190.084 52.714H214.627V50.714H190.084V52.714ZM214.627 52.714C218.225 52.714 222.251 53.4184 226.714 54.853L227.326 52.949C222.717 51.4676 218.481 50.714 214.627 50.714V52.714ZM226.714 54.853C231.139 56.2753 235.418 58.4915 239.552 61.5124L240.732 59.8976C236.442 56.7625 231.973 54.4426 227.326 52.949L226.714 54.853ZM240.747 61.5012C244.719 58.4827 248.835 56.2696 253.094 54.8497L252.462 52.9523C247.974 54.4484 243.665 56.7713 239.537 59.9088L240.747 61.5012ZM253.084 54.853C257.538 53.4213 261.728 52.714 265.657 52.714V50.714C261.487 50.714 257.09 51.4646 252.472 52.949L253.084 54.853ZM265.657 52.714H289.957V50.714H265.657V52.714ZM289.957 52.714C298.29 52.714 306.677 55.698 315.132 61.7607L316.298 60.1353C307.582 53.886 298.796 50.714 289.957 50.714V52.714ZM315.157 61.7777C323.72 67.5385 328.08 76.8999 328.08 90.108H330.08C330.08 76.424 325.53 66.3454 316.273 60.1183L315.157 61.7777ZM328.08 90.108V188.523H330.08V90.108H328.08ZM328.08 188.523C328.08 192.125 327.015 194.661 325.035 196.323C323.022 198.013 319.893 198.944 315.472 198.944V200.944C320.124 200.944 323.799 199.972 326.321 197.855C328.877 195.71 330.08 192.535 330.08 188.523H328.08ZM315.472 198.944C311.052 198.944 307.923 198.013 305.909 196.323C303.929 194.661 302.864 192.125 302.864 188.523H300.864C300.864 192.535 302.067 195.71 304.623 197.855C307.146 199.972 310.821 200.944 315.472 200.944V198.944ZM302.864 188.523V92.295H300.864V188.523H302.864ZM302.864 92.295C302.864 90.1113 302.612 87.9299 302.11 85.7521L300.161 86.2019C300.63 88.2361 300.864 90.2666 300.864 92.295H302.864ZM302.11 85.7521C301.593 83.5125 300.644 81.4454 299.271 79.5568L297.653 80.7332C298.872 82.4086 299.706 84.2295 300.161 86.2019L302.11 85.7521ZM297.755 80.8521L297.998 81.0951L299.412 79.6809L299.169 79.4379L297.755 80.8521ZM299.557 79.8639C298.171 77.6113 296.4 75.995 294.23 75.0909L293.461 76.9371C295.179 77.653 296.648 78.9527 297.854 80.9121L299.557 79.8639ZM294.292 75.1196C292.144 74.0451 289.125 73.556 285.34 73.556V75.556C289.007 75.556 291.659 76.0388 293.398 76.9084L294.292 75.1196ZM285.34 73.556H270.031V75.556H285.34V73.556ZM270.031 73.556C263.075 73.556 258.151 75.548 255.787 79.9117L257.545 80.8643C259.394 77.452 263.379 75.556 270.031 75.556V73.556ZM255.805 79.8793C253.603 83.6062 252.507 87.7526 252.507 92.295H254.507C254.507 88.0894 255.517 84.2978 257.527 80.8967L255.805 79.8793ZM252.507 92.295V188.523H254.507V92.295H252.507ZM252.507 188.523C252.507 192.131 251.459 194.668 249.516 196.329C247.543 198.014 244.478 198.944 240.142 198.944V200.944C244.716 200.944 248.333 199.97 250.816 197.849C253.328 195.702 254.507 192.529 254.507 188.523H252.507ZM240.142 198.944C235.722 198.944 232.593 198.013 230.579 196.323C228.599 194.661 227.534 192.125 227.534 188.523H225.534C225.534 192.535 226.737 195.71 229.293 197.855C231.816 199.972 235.491 200.944 240.142 200.944V198.944ZM227.534 188.523V92.295H225.534V188.523H227.534ZM359.337 33.246L358.63 33.9531L358.638 33.961L358.646 33.9686L359.337 33.246ZM359.337 6.75899L358.646 6.03634L358.638 6.04402L358.63 6.05188L359.337 6.75899ZM385.824 6.75899L386.532 6.05188L386.532 6.05188L385.824 6.75899ZM385.067 187.794C385.067 191.49 384.015 194.09 382.069 195.789C380.096 197.51 377.034 198.458 372.702 198.458V200.458C377.281 200.458 380.901 199.462 383.384 197.295C385.892 195.106 387.067 191.874 387.067 187.794H385.067ZM372.702 198.458C368.286 198.458 365.16 197.508 363.147 195.783C361.164 194.082 360.094 191.484 360.094 187.794H358.094C358.094 191.88 359.293 195.114 361.846 197.301C364.368 199.464 368.047 200.458 372.702 200.458V198.458ZM360.094 187.794V62.406H358.094V187.794H360.094ZM360.094 62.406C360.094 58.7159 361.164 56.1176 363.147 54.4173C365.16 52.6916 368.286 51.742 372.702 51.742V49.742C368.047 49.742 364.368 50.7364 361.846 52.8987C359.293 55.0864 358.094 58.3201 358.094 62.406H360.094ZM372.702 51.742C377.034 51.742 380.096 52.69 382.069 54.4114C384.015 56.1101 385.067 58.7102 385.067 62.406H387.067C387.067 58.3258 385.892 55.0939 383.384 52.9046C380.901 50.738 377.281 49.742 372.702 49.742V51.742ZM385.067 62.406V187.794H387.067V62.406H385.067ZM390.17 20.124C390.17 25.0512 388.488 29.1683 385.117 32.5389L386.532 33.9531C390.289 30.1957 392.17 25.5647 392.17 20.124H390.17ZM385.117 32.5389C381.747 35.9095 377.63 37.592 372.702 37.592V39.592C378.143 39.592 382.774 37.7105 386.532 33.9531L385.117 32.5389ZM372.702 37.592C367.774 37.592 363.567 35.9083 360.029 32.5234L358.646 33.9686C362.559 37.7117 367.263 39.592 372.702 39.592V37.592ZM360.045 32.5389C356.674 29.1683 354.991 25.0512 354.991 20.124H352.991C352.991 25.5647 354.873 30.1957 358.63 33.9531L360.045 32.5389ZM354.991 20.124C354.991 15.0254 356.68 10.8303 360.045 7.46609L358.63 6.05188C354.867 9.81568 352.991 14.5306 352.991 20.124H354.991ZM360.029 7.48163C363.567 4.09672 367.774 2.413 372.702 2.413V0.412996C367.263 0.412996 362.559 2.29327 358.646 6.03634L360.029 7.48163ZM372.702 2.413C377.63 2.413 381.747 4.09554 385.117 7.46609L386.532 6.05188C382.774 2.29445 378.143 0.412996 372.702 0.412996V2.413ZM385.117 7.46609C388.482 10.8303 390.17 15.0254 390.17 20.124H392.17C392.17 14.5306 390.295 9.81568 386.532 6.05188L385.117 7.46609ZM422.992 72.855L422.075 72.4574L422.075 72.4574L422.992 72.855ZM432.955 60.948L433.517 61.7755L433.527 61.7682L433.538 61.7607L432.955 60.948ZM523.594 60.948L524.17 60.1302L524.163 60.1253L523.594 60.948ZM506.098 80.145L506.805 79.4379L505.266 80.6997L506.098 80.145ZM506.341 80.388L505.634 81.0951L507.22 79.9117L506.341 80.388ZM449.965 80.388L450.797 80.9427L450.823 80.9046L450.844 80.8643L449.965 80.388ZM445.563 187.794C445.563 191.49 444.511 194.09 442.564 195.789C440.592 197.51 437.53 198.458 433.198 198.458V200.458C437.776 200.458 441.397 199.462 443.879 197.295C446.388 195.106 447.563 191.874 447.563 187.794H445.563ZM433.198 198.458C428.866 198.458 425.804 197.51 423.832 195.789C421.885 194.09 420.833 191.49 420.833 187.794H418.833C418.833 191.874 420.008 195.106 422.517 197.295C424.999 199.462 428.62 200.458 433.198 200.458V198.458ZM420.833 187.794V90.108H418.833V187.794H420.833ZM420.833 90.108C420.833 83.5692 421.87 77.9596 423.91 73.2526L422.075 72.4574C419.902 77.4704 418.833 83.3628 418.833 90.108H420.833ZM423.91 73.2526C425.937 68.5731 429.132 64.7508 433.517 61.7755L432.394 60.1205C427.706 63.3012 424.259 67.4169 422.075 72.4574L423.91 73.2526ZM433.538 61.7607C441.994 55.698 450.38 52.714 458.713 52.714V50.714C449.874 50.714 441.089 53.886 432.372 60.1353L433.538 61.7607ZM458.713 52.714H497.836V50.714H458.713V52.714ZM497.836 52.714C505.84 52.714 514.231 55.6947 523.026 61.7707L524.163 60.1253C515.137 53.8893 506.356 50.714 497.836 50.714V52.714ZM523.019 61.7658C531.435 67.6888 535.716 77.0609 535.716 90.108H537.716C537.716 76.5871 533.249 66.5192 524.17 60.1302L523.019 61.7658ZM535.716 90.108V187.794H537.716V90.108H535.716ZM535.716 187.794C535.716 191.49 534.664 194.09 532.717 195.789C530.745 197.51 527.683 198.458 523.351 198.458V200.458C527.929 200.458 531.55 199.462 534.032 197.295C536.541 195.106 537.716 191.874 537.716 187.794H535.716ZM523.351 198.458C519.019 198.458 515.957 197.51 513.985 195.789C512.038 194.09 510.986 191.49 510.986 187.794H508.986C508.986 191.874 510.161 195.106 512.67 197.295C515.152 199.462 518.773 200.458 523.351 200.458V198.458ZM510.986 187.794V92.295H508.986V187.794H510.986ZM510.986 92.295C510.986 87.8643 509.619 83.6239 506.93 79.5903L505.266 80.6997C507.761 84.4421 508.986 88.3017 508.986 92.295H510.986ZM505.391 80.8521L505.634 81.0951L507.048 79.6809L506.805 79.4379L505.391 80.8521ZM507.22 79.9117C504.865 75.5629 500.119 73.556 493.462 73.556V75.556C499.765 75.556 503.605 77.4371 505.462 80.8643L507.22 79.9117ZM493.462 73.556H463.087V75.556H493.462V73.556ZM463.087 73.556C456.281 73.556 451.446 75.5553 449.086 79.9117L450.844 80.8643C452.697 77.4447 456.609 75.556 463.087 75.556V73.556ZM449.133 79.8333C446.744 83.4173 445.563 87.584 445.563 92.295H447.563C447.563 87.934 448.65 84.1627 450.797 80.9427L449.133 79.8333ZM445.563 92.295V187.794H447.563V92.295H445.563ZM658.302 74.556H659.302V73.556H658.302V74.556ZM598.281 80.388L599.113 80.9427L599.138 80.9046L599.16 80.8643L598.281 80.388ZM598.767 171.999L598.108 172.752L598.122 172.764L598.136 172.775L598.767 171.999ZM643.236 194.841L642.394 194.3L642.389 194.309L642.384 194.317L643.236 194.841ZM580.056 190.224L580.602 189.387L580.59 189.379L580.578 189.371L580.056 190.224ZM571.308 72.855L570.39 72.4574L570.39 72.4574L571.308 72.855ZM581.271 60.948L581.832 61.7755L581.843 61.7682L581.853 61.7607L581.271 60.948ZM658.302 51.714V52.714H659.302V51.714H658.302ZM662.433 197.757L662.007 198.662L662.029 198.672L662.052 198.682L662.433 197.757ZM658.302 73.556H611.403V75.556H658.302V73.556ZM611.403 73.556C604.596 73.556 599.761 75.5553 597.401 79.9117L599.16 80.8643C601.012 77.4447 604.925 75.556 611.403 75.556V73.556ZM597.448 79.8333C595.059 83.4173 593.879 87.584 593.879 92.295H595.879C595.879 87.934 596.966 84.1627 599.113 80.9427L597.448 79.8333ZM593.879 92.295V162.279H595.879V92.295H593.879ZM593.879 162.279C593.879 166.709 595.251 170.252 598.108 172.752L599.425 171.246C597.098 169.21 595.879 166.273 595.879 162.279H593.879ZM598.136 172.775C601.001 175.103 605.584 176.158 611.646 176.158V174.158C605.719 174.158 601.716 173.107 599.397 171.223L598.136 172.775ZM611.646 176.158H636.675V174.158H611.646V176.158ZM636.675 176.158C639.354 176.158 641.214 177.019 642.442 178.621C643.708 180.274 644.423 182.872 644.423 186.579H646.423C646.423 182.672 645.679 179.559 644.029 177.405C642.341 175.201 639.827 174.158 636.675 174.158V176.158ZM644.423 186.579C644.423 189.666 643.729 192.224 642.394 194.3L644.077 195.382C645.658 192.922 646.423 189.972 646.423 186.579H644.423ZM642.384 194.317C641.316 196.052 639.503 197 636.675 197V199C640.002 199 642.563 197.842 644.087 195.365L642.384 194.317ZM636.675 197H607.272V199H636.675V197ZM607.272 197C597.244 197 588.365 194.456 580.602 189.387L579.509 191.061C587.622 196.36 596.887 199 607.272 199V197ZM580.578 189.371C573.06 184.769 569.149 175.957 569.149 162.522H567.149C567.149 176.303 571.175 185.959 579.533 191.077L580.578 189.371ZM569.149 162.522V90.108H567.149V162.522H569.149ZM569.149 90.108C569.149 83.5692 570.185 77.9596 572.225 73.2526L570.39 72.4574C568.218 77.4704 567.149 83.3628 567.149 90.108H569.149ZM572.225 73.2526C574.253 68.5731 577.447 64.7508 581.832 61.7755L580.709 60.1205C576.022 63.3012 572.574 67.4169 570.39 72.4574L572.225 73.2526ZM581.853 61.7607C590.309 55.698 598.696 52.714 607.029 52.714V50.714C598.189 50.714 589.404 53.886 580.688 60.1353L581.853 61.7607ZM607.029 52.714H658.302V50.714H607.029V52.714ZM659.302 51.714V15.264H657.302V51.714H659.302ZM659.302 15.264C659.302 11.5682 660.354 8.9681 662.3 7.26942C664.273 5.54804 667.335 4.6 671.667 4.6V2.6C667.088 2.6 663.468 3.59595 660.985 5.76257C658.477 7.95189 657.302 11.1838 657.302 15.264H659.302ZM671.667 4.6C675.998 4.6 679.06 5.54804 681.033 7.26942C682.979 8.9681 684.032 11.5682 684.032 15.264H686.032C686.032 11.1838 684.856 7.95189 682.348 5.76257C679.865 3.59595 676.245 2.6 671.667 2.6V4.6ZM684.032 15.264V187.794H686.032V15.264H684.032ZM684.032 187.794C684.032 191.49 682.979 194.09 681.033 195.789C679.06 197.51 675.998 198.458 671.667 198.458V200.458C676.245 200.458 679.865 199.462 682.348 197.295C684.856 195.106 686.032 191.874 686.032 187.794H684.032ZM671.667 198.458C668.377 198.458 665.431 197.91 662.813 196.832L662.052 198.682C664.943 199.872 668.152 200.458 671.667 200.458V198.458ZM662.858 196.852C660.588 195.784 659.302 193.493 659.302 189.495H657.302C657.302 193.921 658.769 197.138 662.007 198.662L662.858 196.852ZM659.302 189.495V74.556H657.302V189.495H659.302Z" fill="black"/>
</svg>
