<svg width="733" height="355" fill="none" xmlns="http://www.w3.org/2000/svg"><path d="M37.704 161.765c-5.508-.162-9.558-1.296-12.15-3.402-2.43-2.268-3.645-5.346-3.645-9.234v-3.645c.162-1.296.405-2.349.73-3.159L57.63 15.965c1.944-8.424 7.857-11.745 17.74-9.963 4.535.972 7.775 2.754 9.72 5.346 2.105 2.43 2.591 5.67 1.457 9.72l.243-.243-32.319 116.64h42.04V14.507c0-7.776 4.697-11.664 14.093-11.664 9.72 0 14.58 3.888 14.58 11.664v122.958h10.935c6.48 0 9.639 4.05 9.477 12.15-.324 8.1-3.483 12.15-9.477 12.15h-10.935v27.702c0 7.614-4.86 11.421-14.58 11.421-9.396 0-14.094-3.807-14.094-11.421v-27.702H37.704zm208.83-70.47c0-2.106-.324-4.131-.972-6.075-.648-2.106-1.458-4.05-2.43-5.832-2.106-3.888-6.48-5.832-13.122-5.832h-15.552c-6.642 0-11.097 1.944-13.365 5.832a25.375 25.375 0 00-2.916 11.907v96.228c0 7.614-4.455 11.421-13.365 11.421-9.234 0-13.851-3.807-13.851-11.421V89.108c0-13.284 4.374-23.004 13.122-29.16 8.91-6.156 17.577-9.234 26.001-9.234h24.543c3.726 0 7.857.729 12.393 2.187 4.536 1.458 8.91 3.726 13.122 6.804 4.05-3.078 8.262-5.346 12.636-6.804 4.536-1.458 8.829-2.187 12.879-2.187h24.3c8.586 0 17.172 3.078 25.758 9.234 8.91 5.994 13.365 15.714 13.365 29.16v98.415c0 7.614-4.536 11.421-13.608 11.421-9.072 0-13.608-3.807-13.608-11.421V91.295c0-2.106-.243-4.212-.729-6.318a15.908 15.908 0 00-2.673-5.832l.243.243c-1.296-2.106-2.916-3.564-4.86-4.374-1.944-.972-4.779-1.458-8.505-1.458h-15.309c-6.804 0-11.259 1.944-13.365 5.832-2.106 3.564-3.159 7.533-3.159 11.907v96.228c0 7.614-4.455 11.421-13.365 11.421-9.072 0-13.608-3.807-13.608-11.421V91.295zm159.533 95.499c0 7.776-4.455 11.664-13.365 11.664-9.072 0-13.608-3.888-13.608-11.664V61.406c0-7.776 4.536-11.664 13.608-11.664 8.91 0 13.365 3.888 13.365 11.664v125.388zm5.103-167.67c0 5.184-1.782 9.558-5.346 13.122s-7.938 5.346-13.122 5.346-9.639-1.782-13.365-5.346c-3.564-3.564-5.346-7.938-5.346-13.122 0-5.346 1.782-9.801 5.346-13.365 3.726-3.564 8.181-5.346 13.365-5.346 5.184 0 9.558 1.782 13.122 5.346s5.346 8.019 5.346 13.365zm55.393 167.67c0 7.776-4.455 11.664-13.365 11.664s-13.365-3.888-13.365-11.664V89.108c0-6.642 1.053-12.393 3.159-17.253 2.106-4.86 5.427-8.829 9.963-11.907 8.586-6.156 17.172-9.234 25.758-9.234h39.123c8.262 0 16.848 3.078 25.758 9.234 8.748 6.156 13.122 15.876 13.122 29.16v97.686c0 7.776-4.455 11.664-13.365 11.664s-13.365-3.888-13.365-11.664V91.295c0-4.212-1.296-8.262-3.888-12.15l.243.243c-2.106-3.888-6.399-5.832-12.879-5.832h-30.375c-6.642 0-11.016 1.944-13.122 5.832-2.268 3.402-3.402 7.371-3.402 11.907v95.499zM678.302 73.556h-46.899c-6.642 0-11.016 1.944-13.122 5.832-2.268 3.402-3.402 7.371-3.402 11.907v69.984c0 4.212 1.296 7.452 3.888 9.72 2.592 2.106 6.885 3.159 12.879 3.159h25.029c5.832 0 8.748 3.807 8.748 11.421 0 3.24-.729 5.994-2.187 8.262-1.296 2.106-3.483 3.159-6.561 3.159h-29.403c-10.206 0-19.278-2.592-27.216-7.776-7.938-4.86-11.907-14.094-11.907-27.702V89.108c0-6.642 1.053-12.393 3.159-17.253 2.106-4.86 5.427-8.829 9.963-11.907 8.586-6.156 17.172-9.234 25.758-9.234h51.273v-36.45c0-7.776 4.455-11.664 13.365-11.664s13.365 3.888 13.365 11.664v172.53c0 7.776-4.455 11.664-13.365 11.664-3.402 0-6.48-.567-9.234-1.701-2.754-1.296-4.131-4.05-4.131-8.262V73.556zM39.039 354c-.72 0-1.16-.36-1.32-1.08l-3-14.88c0-.16-.08-.28-.24-.36-.08-.08-.2-.12-.36-.12h-21.72c-.16 0-.32.04-.48.12-.08.08-.12.2-.12.36l-3 14.88c-.08.72-.52 1.08-1.32 1.08h-6.12c-.4 0-.72-.12-.96-.36-.16-.24-.2-.56-.12-.96l18-81.6c.16-.72.6-1.08 1.32-1.08h7.2c.8 0 1.24.36 1.32 1.08l18.24 81.6v.24c0 .72-.36 1.08-1.08 1.08h-6.24zm-25.68-23.88c0 .32.12.48.36.48h18.96c.24 0 .36-.16.36-.48l-9.6-47.16c-.08-.24-.16-.36-.24-.36-.08 0-.16.12-.24.36l-9.6 47.16zM102.178 354c-.72 0-1.2-.32-1.44-.96l-12.24-37.08c-.08-.24-.24-.36-.48-.36h-10.44c-.32 0-.48.16-.48.48v36.72c0 .8-.4 1.2-1.2 1.2h-6.12c-.8 0-1.2-.4-1.2-1.2v-81.6c0-.8.4-1.2 1.2-1.2h19.8c5.84 0 10.56 2.16 14.16 6.48 3.6 4.24 5.4 9.8 5.4 16.68 0 5.2-1.12 9.68-3.36 13.44-2.24 3.76-5.28 6.4-9.12 7.92-.32.08-.44.28-.36.6l13.08 37.56.12.48c0 .56-.36.84-1.08.84h-6.24zm-24.6-76.56c-.32 0-.48.16-.48.48v30.36c0 .32.16.48.48.48h10.8c3.68 0 6.64-1.4 8.88-4.2 2.24-2.88 3.36-6.68 3.36-11.4 0-4.72-1.12-8.52-3.36-11.4-2.24-2.88-5.2-4.32-8.88-4.32h-10.8zm74.563 77.52c-6.16 0-11.12-1.88-14.88-5.64-3.68-3.76-5.52-8.8-5.52-15.12v-44.52c0-6.24 1.84-11.24 5.52-15 3.76-3.76 8.72-5.64 14.88-5.64 6.24 0 11.2 1.88 14.88 5.64 3.76 3.68 5.64 8.68 5.64 15v2.04c0 .8-.4 1.2-1.2 1.2l-6.24.36c-.8 0-1.2-.4-1.2-1.2v-3c0-3.76-1.08-6.8-3.24-9.12-2.16-2.32-5.04-3.48-8.64-3.48-3.52 0-6.4 1.16-8.64 3.48-2.16 2.32-3.24 5.36-3.24 9.12v45.84c0 3.76 1.08 6.8 3.24 9.12 2.24 2.32 5.12 3.48 8.64 3.48 3.6 0 6.48-1.16 8.64-3.48 2.16-2.32 3.24-5.36 3.24-9.12v-3c0-.8.4-1.2 1.2-1.2l6.24.36c.8 0 1.2.4 1.2 1.2v1.92c0 6.32-1.88 11.36-5.64 15.12s-8.72 5.64-14.88 5.64zm78.034-83.76c0-.8.4-1.2 1.2-1.2h6.12c.8 0 1.2.4 1.2 1.2v81.6c0 .8-.4 1.2-1.2 1.2h-6.12c-.8 0-1.2-.4-1.2-1.2v-36.6c0-.32-.16-.48-.48-.48h-21.36c-.32 0-.48.16-.48.48v36.6c0 .8-.4 1.2-1.2 1.2h-6.12c-.8 0-1.2-.4-1.2-1.2v-81.6c0-.8.4-1.2 1.2-1.2h6.12c.8 0 1.2.4 1.2 1.2v36.48c0 .32.16.48.48.48h21.36c.32 0 .48-.16.48-.48V271.2zm38.962 82.8c-.8 0-1.2-.4-1.2-1.2v-81.6c0-.8.4-1.2 1.2-1.2h6.12c.8 0 1.2.4 1.2 1.2v81.6c0 .8-.4 1.2-1.2 1.2h-6.12zm73.421-84c.8 0 1.2.4 1.2 1.2v5.04c0 .8-.4 1.2-1.2 1.2h-15.84c-.32 0-.48.16-.48.48v74.88c0 .8-.4 1.2-1.2 1.2h-6.12c-.8 0-1.2-.4-1.2-1.2v-74.88c0-.32-.16-.48-.48-.48h-14.88c-.8 0-1.2-.4-1.2-1.2v-5.04c0-.8.4-1.2 1.2-1.2h40.2zm63.942 6.24c0 .8-.4 1.2-1.2 1.2h-27.84c-.32 0-.48.16-.48.48v29.76c0 .32.16.48.48.48h17.52c.8 0 1.2.4 1.2 1.2v5.16c0 .8-.4 1.2-1.2 1.2h-17.52c-.32 0-.48.16-.48.48v29.88c0 .32.16.48.48.48h27.84c.8 0 1.2.4 1.2 1.2v5.04c0 .8-.4 1.2-1.2 1.2h-35.64c-.8 0-1.2-.4-1.2-1.2v-81.6c0-.8.4-1.2 1.2-1.2h35.64c.8 0 1.2.4 1.2 1.2v5.04zm43.766 78.72c-6.16 0-11.12-1.88-14.88-5.64-3.68-3.76-5.52-8.8-5.52-15.12v-44.52c0-6.24 1.84-11.24 5.52-15 3.76-3.76 8.72-5.64 14.88-5.64 6.24 0 11.2 1.88 14.88 5.64 3.76 3.68 5.64 8.68 5.64 15v2.04c0 .8-.4 1.2-1.2 1.2l-6.24.36c-.8 0-1.2-.4-1.2-1.2v-3c0-3.76-1.08-6.8-3.24-9.12-2.16-2.32-5.04-3.48-8.64-3.48-3.52 0-6.4 1.16-8.64 3.48-2.16 2.32-3.24 5.36-3.24 9.12v45.84c0 3.76 1.08 6.8 3.24 9.12 2.24 2.32 5.12 3.48 8.64 3.48 3.6 0 6.48-1.16 8.64-3.48 2.16-2.32 3.24-5.36 3.24-9.12v-3c0-.8.4-1.2 1.2-1.2l6.24.36c.8 0 1.2.4 1.2 1.2v1.92c0 6.32-1.88 11.36-5.64 15.12s-8.72 5.64-14.88 5.64zM534.3 270c.8 0 1.2.4 1.2 1.2v5.04c0 .8-.4 1.2-1.2 1.2h-15.84c-.32 0-.48.16-.48.48v74.88c0 .8-.4 1.2-1.2 1.2h-6.12c-.8 0-1.2-.4-1.2-1.2v-74.88c0-.32-.16-.48-.48-.48H494.1c-.8 0-1.2-.4-1.2-1.2v-5.04c0-.8.4-1.2 1.2-1.2h40.2zm45.703 84.96c-6.16 0-11.12-2.12-14.88-6.36-3.76-4.24-5.641-9.84-5.641-16.8v-60.6c0-.8.401-1.2 1.201-1.2h6.12c.8 0 1.2.4 1.2 1.2v61.56c0 4.4 1.08 7.96 3.24 10.68 2.24 2.72 5.16 4.08 8.76 4.08 3.68 0 6.64-1.36 8.88-4.08 2.24-2.72 3.36-6.28 3.36-10.68V271.2c0-.8.4-1.2 1.2-1.2h6.12c.8 0 1.2.4 1.2 1.2v60.6c0 6.96-1.92 12.56-5.76 16.8-3.76 4.24-8.76 6.36-15 6.36zm82.87-.96c-.72 0-1.2-.32-1.44-.96l-12.24-37.08c-.08-.24-.24-.36-.48-.36h-10.44c-.32 0-.48.16-.48.48v36.72c0 .8-.4 1.2-1.2 1.2h-6.12c-.8 0-1.2-.4-1.2-1.2v-81.6c0-.8.4-1.2 1.2-1.2h19.8c5.84 0 10.56 2.16 14.16 6.48 3.6 4.24 5.4 9.8 5.4 16.68 0 5.2-1.12 9.68-3.36 13.44-2.24 3.76-5.28 6.4-9.12 7.92-.32.08-.44.28-.36.6l13.08 37.56.12.48c0 .56-.36.84-1.08.84h-6.24zm-24.6-76.56c-.32 0-.48.16-.48.48v30.36c0 .32.16.48.48.48h10.8c3.68 0 6.64-1.4 8.88-4.2 2.24-2.88 3.36-6.68 3.36-11.4 0-4.72-1.12-8.52-3.36-11.4-2.24-2.88-5.2-4.32-8.88-4.32h-10.8zm94.243-1.2c0 .8-.4 1.2-1.2 1.2h-27.84c-.32 0-.48.16-.48.48v29.76c0 .32.16.48.48.48h17.52c.8 0 1.2.4 1.2 1.2v5.16c0 .8-.4 1.2-1.2 1.2h-17.52c-.32 0-.48.16-.48.48v29.88c0 .32.16.48.48.48h27.84c.8 0 1.2.4 1.2 1.2v5.04c0 .8-.4 1.2-1.2 1.2h-35.64c-.8 0-1.2-.4-1.2-1.2v-81.6c0-.8.4-1.2 1.2-1.2h35.64c.8 0 1.2.4 1.2 1.2v5.04z" fill="#000"/></svg>