<svg width="1001" height="804" viewBox="0 0 1001 804" fill="none" xmlns="http://www.w3.org/2000/svg">
<path d="M310.704 578.765C305.196 578.603 301.146 577.469 298.554 575.363C296.124 573.095 294.909 570.017 294.909 566.129C294.909 564.995 294.909 563.78 294.909 562.484C295.071 561.188 295.314 560.135 295.638 559.325L330.63 432.965C332.574 424.541 338.487 421.22 348.369 423.002C352.905 423.974 356.145 425.756 358.089 428.348C360.195 430.778 360.681 434.018 359.547 438.068L359.79 437.825L327.471 554.465H369.51V431.507C369.51 423.731 374.208 419.843 383.604 419.843C393.324 419.843 398.184 423.731 398.184 431.507V554.465H409.119C415.599 554.465 418.758 558.515 418.596 566.615C418.272 574.715 415.113 578.765 409.119 578.765H398.184V606.467C398.184 614.081 393.324 617.888 383.604 617.888C374.208 617.888 369.51 614.081 369.51 606.467V578.765H310.704ZM519.534 508.295C519.534 506.189 519.21 504.164 518.562 502.22C517.914 500.114 517.104 498.17 516.132 496.388C514.026 492.5 509.652 490.556 503.01 490.556H487.458C480.816 490.556 476.361 492.5 474.093 496.388C472.149 500.114 471.177 504.083 471.177 508.295V604.523C471.177 612.137 466.722 615.944 457.812 615.944C448.578 615.944 443.961 612.137 443.961 604.523V506.108C443.961 492.824 448.335 483.104 457.083 476.948C465.993 470.792 474.66 467.714 483.084 467.714H507.627C511.353 467.714 515.484 468.443 520.02 469.901C524.556 471.359 528.93 473.627 533.142 476.705C537.192 473.627 541.404 471.359 545.778 469.901C550.314 468.443 554.607 467.714 558.657 467.714H582.957C591.543 467.714 600.129 470.792 608.715 476.948C617.625 482.942 622.08 492.662 622.08 506.108V604.523C622.08 612.137 617.544 615.944 608.472 615.944C599.4 615.944 594.864 612.137 594.864 604.523V508.295C594.864 506.189 594.621 504.083 594.135 501.977C593.649 499.871 592.758 497.927 591.462 496.145L591.705 496.388C590.409 494.282 588.789 492.824 586.845 492.014C584.901 491.042 582.066 490.556 578.34 490.556H563.031C556.227 490.556 551.772 492.5 549.666 496.388C547.56 499.952 546.507 503.921 546.507 508.295V604.523C546.507 612.137 542.052 615.944 533.142 615.944C524.07 615.944 519.534 612.137 519.534 604.523V508.295ZM679.067 603.794C679.067 611.57 674.612 615.458 665.702 615.458C656.63 615.458 652.094 611.57 652.094 603.794V478.406C652.094 470.63 656.63 466.742 665.702 466.742C674.612 466.742 679.067 470.63 679.067 478.406V603.794ZM684.17 436.124C684.17 441.308 682.388 445.682 678.824 449.246C675.26 452.81 670.886 454.592 665.702 454.592C660.518 454.592 656.063 452.81 652.337 449.246C648.773 445.682 646.991 441.308 646.991 436.124C646.991 430.778 648.773 426.323 652.337 422.759C656.063 419.195 660.518 417.413 665.702 417.413C670.886 417.413 675.26 419.195 678.824 422.759C682.388 426.323 684.17 430.778 684.17 436.124ZM739.563 603.794C739.563 611.57 735.108 615.458 726.198 615.458C717.288 615.458 712.833 611.57 712.833 603.794V506.108C712.833 499.466 713.886 493.715 715.992 488.855C718.098 483.995 721.419 480.026 725.955 476.948C734.541 470.792 743.127 467.714 751.713 467.714H790.836C799.098 467.714 807.684 470.792 816.594 476.948C825.342 483.104 829.716 492.824 829.716 506.108V603.794C829.716 611.57 825.261 615.458 816.351 615.458C807.441 615.458 802.986 611.57 802.986 603.794V508.295C802.986 504.083 801.69 500.033 799.098 496.145L799.341 496.388C797.235 492.5 792.942 490.556 786.462 490.556H756.087C749.445 490.556 745.071 492.5 742.965 496.388C740.697 499.79 739.563 503.759 739.563 508.295V603.794ZM951.302 490.556H904.403C897.761 490.556 893.387 492.5 891.281 496.388C889.013 499.79 887.879 503.759 887.879 508.295V578.279C887.879 582.491 889.175 585.731 891.767 587.999C894.359 590.105 898.652 591.158 904.646 591.158H929.675C935.507 591.158 938.423 594.965 938.423 602.579C938.423 605.819 937.694 608.573 936.236 610.841C934.94 612.947 932.753 614 929.675 614H900.272C890.066 614 880.994 611.408 873.056 606.224C865.118 601.364 861.149 592.13 861.149 578.522V506.108C861.149 499.466 862.202 493.715 864.308 488.855C866.414 483.995 869.735 480.026 874.271 476.948C882.857 470.792 891.443 467.714 900.029 467.714H951.302V431.264C951.302 423.488 955.757 419.6 964.667 419.6C973.577 419.6 978.032 423.488 978.032 431.264V603.794C978.032 611.57 973.577 615.458 964.667 615.458C961.265 615.458 958.187 614.891 955.433 613.757C952.679 612.461 951.302 609.707 951.302 605.495V490.556Z" fill="black"/>
<circle cx="203.856" cy="318.301" r="7.15284" fill="black"/>
<circle cx="220.546" cy="319.493" r="7.15284" fill="black"/>
<circle cx="219.354" cy="333.799" r="7.15284" fill="black"/>
<circle cx="202.664" cy="342.144" r="7.15284" fill="black"/>
<circle cx="199.087" cy="368.371" r="7.15284" fill="black"/>
<circle cx="185.974" cy="361.218" r="7.15284" fill="black"/>
<circle cx="213.393" cy="358.834" r="7.15284" fill="black"/>
<circle cx="228.891" cy="357.642" r="7.15284" fill="black"/>
<circle cx="237.236" cy="346.913" r="7.15284" fill="black"/>
<circle cx="187.166" cy="344.528" r="7.15284" fill="black"/>
<circle cx="234.852" cy="336.183" r="7.15284" fill="black"/>
<circle cx="236.044" cy="318.301" r="7.15284" fill="black"/>
<circle cx="250.349" cy="330.223" r="7.15284" fill="black"/>
<circle cx="255.118" cy="319.493" r="7.15284" fill="black"/>
<circle cx="265.847" cy="331.415" r="7.15284" fill="black"/>
<circle cx="253.926" cy="346.913" r="7.15284" fill="black"/>
<circle cx="277.769" cy="324.262" r="7.15284" fill="black"/>
<circle cx="276.576" cy="308.764" r="7.15284" fill="black"/>
<circle cx="268.231" cy="299.227" r="7.15284" fill="black"/>
<circle cx="247.965" cy="305.188" r="7.15284" fill="black"/>
<circle cx="234.852" cy="301.611" r="7.15284" fill="black"/>
<circle cx="238.428" cy="286.114" r="7.15284" fill="black"/>
<circle cx="255.118" cy="289.69" r="7.15284" fill="black"/>
<circle cx="220.546" cy="294.458" r="7.15284" fill="black"/>
<circle cx="206.24" cy="300.419" r="7.15284" fill="black"/>
<circle cx="199.087" cy="287.306" r="7.15284" fill="black"/>
<circle cx="177.629" cy="293.266" r="7.15284" fill="black"/>
<circle cx="163.323" cy="282.537" r="7.15284" fill="black"/>
<circle cx="139.48" cy="289.69" r="7.15284" fill="black"/>
<circle cx="154.978" cy="308.764" r="7.15284" fill="black"/>
<circle cx="137.096" cy="308.764" r="7.15284" fill="black"/>
<circle cx="122.79" cy="300.419" r="7.15284" fill="black"/>
<circle cx="108.485" cy="293.266" r="7.15284" fill="black"/>
<circle cx="88.2184" cy="298.035" r="7.15284" fill="black"/>
<circle cx="54.8384" cy="299.227" r="7.15284" fill="black"/>
<circle cx="42.9171" cy="321.878" r="7.15284" fill="black"/>
<circle cx="21.4585" cy="342.144" r="7.15284" fill="black"/>
<circle cx="144.249" cy="325.454" r="7.15284" fill="black"/>
<circle cx="169.284" cy="265.847" r="7.15284" fill="black"/>
<circle cx="185.974" cy="257.502" r="7.15284" fill="black"/>
<circle cx="206.24" cy="267.039" r="7.15284" fill="black"/>
<circle cx="218.162" cy="277.769" r="7.15284" fill="black"/>
<circle cx="236.044" cy="269.424" r="7.15284" fill="black"/>
<circle cx="251.542" cy="274.192" r="7.15284" fill="black"/>
<circle cx="265.847" cy="277.769" r="7.15284" fill="black"/>
<circle cx="280.153" cy="282.537" r="7.15284" fill="black"/>
<circle cx="290.882" cy="274.192" r="7.15284" fill="black"/>
<circle cx="278.961" cy="265.847" r="7.15284" fill="black"/>
<circle cx="265.847" cy="256.31" r="7.15284" fill="black"/>
<circle cx="245.581" cy="252.734" r="7.15284" fill="black"/>
<circle cx="215.777" cy="257.502" r="7.15284" fill="black"/>
<circle cx="199.087" cy="244.389" r="7.15284" fill="black"/>
<circle cx="190.742" cy="305.188" r="7.15284" fill="black"/>
<circle cx="181.205" cy="311.149" r="7.15284" fill="black"/>
<circle cx="166.9" cy="318.301" r="7.15284" fill="black"/>
<circle cx="177.629" cy="329.031" r="7.15284" fill="black"/>
<circle cx="169.284" cy="352.873" r="7.15284" fill="black"/>
<circle cx="147.825" cy="348.105" r="7.15284" fill="black"/>
<circle cx="125.175" cy="339.76" r="7.15284" fill="black"/>
<circle cx="106.1" cy="327.838" r="7.15284" fill="black"/>
<circle cx="90.6026" cy="323.07" r="5.9607" fill="black"/>
<circle cx="77.4891" cy="313.533" r="5.9607" fill="black"/>
<circle cx="61.9913" cy="325.454" r="5.9607" fill="black"/>
<circle cx="76.2969" cy="338.568" r="5.9607" fill="black"/>
<circle cx="94.1791" cy="344.528" r="5.9607" fill="black"/>
<circle cx="110.869" cy="344.528" r="5.9607" fill="black"/>
<circle cx="131.135" cy="355.258" r="5.9607" fill="black"/>
<circle cx="144.249" cy="364.795" r="5.9607" fill="black"/>
<circle cx="129.943" cy="380.292" r="5.9607" fill="black"/>
<circle cx="119.214" cy="369.563" r="5.9607" fill="black"/>
<circle cx="108.485" cy="360.026" r="5.9607" fill="black"/>
<circle cx="92.9869" cy="358.834" r="5.9607" fill="black"/>
<circle cx="58.4149" cy="350.489" r="5.9607" fill="black"/>
<circle cx="39.3406" cy="358.834" r="5.9607" fill="black"/>
<circle cx="480.432" cy="474.472" r="5.9607" fill="black"/>
<circle cx="493.546" cy="484.009" r="5.9607" fill="black"/>
<circle cx="509.044" cy="473.279" r="5.9607" fill="black"/>
<circle cx="494.738" cy="458.974" r="5.9607" fill="black"/>
<circle cx="475.664" cy="451.821" r="5.9607" fill="black"/>
<circle cx="495.93" cy="439.9" r="5.9607" fill="black"/>
<circle cx="512.62" cy="447.052" r="5.9607" fill="black"/>
<circle cx="507.852" cy="426.786" r="5.9607" fill="black"/>
<circle cx="517.389" cy="410.096" r="5.9607" fill="black"/>
<circle cx="507.852" cy="392.214" r="5.9607" fill="black"/>
<circle cx="491.162" cy="387.445" r="5.9607" fill="black"/>
<circle cx="494.738" cy="413.672" r="5.9607" fill="black"/>
<circle cx="478.048" cy="423.21" r="5.9607" fill="black"/>
<circle cx="462.55" cy="438.707" r="5.9607" fill="black"/>
<circle cx="451.821" cy="427.978" r="5.9607" fill="black"/>
<circle cx="441.092" cy="417.249" r="5.9607" fill="black"/>
<circle cx="420.825" cy="408.904" r="5.9607" fill="black"/>
<circle cx="437.515" cy="398.175" r="5.9607" fill="black"/>
<circle cx="454.205" cy="406.52" r="5.9607" fill="black"/>
<circle cx="467.319" cy="411.288" r="5.9607" fill="black"/>
<circle cx="479.24" cy="400.559" r="5.9607" fill="black"/>
<circle cx="472.087" cy="381.485" r="5.9607" fill="black"/>
<circle cx="473.279" cy="358.834" r="5.9607" fill="black"/>
<circle cx="456.59" cy="352.873" r="5.9607" fill="black"/>
<circle cx="448.245" cy="334.991" r="5.9607" fill="black"/>
<circle cx="427.978" cy="343.336" r="5.9607" fill="black"/>
<circle cx="413.672" cy="342.144" r="5.9607" fill="black"/>
<circle cx="431.555" cy="363.603" r="5.9607" fill="black"/>
<circle cx="449.437" cy="369.563" r="5.9607" fill="black"/>
<circle cx="424.402" cy="376.716" r="5.9607" fill="black"/>
<circle cx="411.288" cy="373.14" r="5.9607" fill="black"/>
<circle cx="361.218" cy="370.755" r="5.9607" fill="black"/>
<circle cx="342.144" cy="350.489" r="5.9607" fill="black"/>
<circle cx="306.38" cy="329.031" r="5.9607" fill="black"/>
<circle cx="317.109" cy="326.646" r="5.9607" fill="black"/>
<circle cx="320.686" cy="338.568" r="5.9607" fill="black"/>
<circle cx="331.415" cy="342.144" r="5.9607" fill="black"/>
<circle cx="343.336" cy="333.799" r="5.9607" fill="black"/>
<circle cx="357.642" cy="334.991" r="5.9607" fill="black"/>
<circle cx="349.297" cy="320.686" r="5.9607" fill="black"/>
<circle cx="349.297" cy="307.572" r="5.9607" fill="black"/>
<circle cx="360.026" cy="296.843" r="5.9607" fill="black"/>
<circle cx="370.755" cy="307.572" r="5.9607" fill="black"/>
<circle cx="383.869" cy="318.301" r="5.9607" fill="black"/>
<circle cx="396.983" cy="307.572" r="5.9607" fill="black"/>
<circle cx="413.672" cy="313.533" r="5.9607" fill="black"/>
<circle cx="382.677" cy="298.035" r="5.9607" fill="black"/>
<circle cx="395.79" cy="286.114" r="5.9607" fill="black"/>
<circle cx="371.948" cy="284.921" r="5.9607" fill="black"/>
<circle cx="352.873" cy="278.961" r="5.9607" fill="black"/>
<circle cx="338.568" cy="273" r="5.9607" fill="black"/>
<circle cx="352.873" cy="262.271" r="5.9607" fill="black"/>
<circle cx="332.607" cy="286.114" r="5.9607" fill="black"/>
<circle cx="342.144" cy="293.266" r="5.9607" fill="black"/>
<circle cx="326.646" cy="301.611" r="5.9607" fill="black"/>
<circle cx="317.109" cy="294.458" r="5.9607" fill="black"/>
<circle cx="306.38" cy="298.035" r="5.9607" fill="black"/>
<circle cx="301.611" cy="284.921" r="5.9607" fill="black"/>
<circle cx="318.301" cy="278.961" r="5.9607" fill="black"/>
<circle cx="307.572" cy="269.424" r="5.9607" fill="black"/>
<circle cx="324.262" cy="261.079" r="5.9607" fill="black"/>
<circle cx="318.301" cy="246.773" r="5.9607" fill="black"/>
<circle cx="305.188" cy="249.157" r="5.9607" fill="black"/>
<circle cx="295.651" cy="237.236" r="5.9607" fill="black"/>
<circle cx="283.729" cy="246.773" r="5.9607" fill="black"/>
<circle cx="278.961" cy="227.699" r="5.9607" fill="black"/>
<circle cx="287.306" cy="211.009" r="5.9607" fill="black"/>
<circle cx="278.961" cy="194.319" r="5.9607" fill="black"/>
<circle cx="261.079" cy="188.358" r="5.9607" fill="black"/>
<circle cx="242.004" cy="183.589" r="5.9607" fill="black"/>
<circle cx="243.197" cy="160.939" r="5.9607" fill="black"/>
<circle cx="226.507" cy="153.786" r="5.9607" fill="black"/>
<circle cx="219.354" cy="170.476" r="5.9607" fill="black"/>
<circle cx="207.432" cy="183.589" r="5.9607" fill="black"/>
<circle cx="207.432" cy="197.895" r="5.9607" fill="black"/>
<circle cx="197.895" cy="224.122" r="5.9607" fill="black"/>
<circle cx="212.201" cy="218.162" r="5.9607" fill="black"/>
<circle cx="213.393" cy="237.236" r="5.9607" fill="black"/>
<circle cx="222.93" cy="227.699" r="5.9607" fill="black"/>
<circle cx="230.083" cy="243.197" r="5.9607" fill="black"/>
<circle cx="246.773" cy="238.428" r="5.9607" fill="black"/>
<circle cx="267.039" cy="240.812" r="5.9607" fill="black"/>
<circle cx="264.655" cy="214.585" r="5.9607" fill="black"/>
<circle cx="249.157" cy="200.279" r="5.9607" fill="black"/>
<circle cx="249.157" cy="224.122" r="5.9607" fill="black"/>
<circle cx="238.428" cy="212.201" r="5.9607" fill="black"/>
<circle cx="225.314" cy="207.432" r="5.9607" fill="black"/>
<circle cx="303.996" cy="218.162" r="5.9607" fill="black"/>
<circle cx="333.799" cy="233.659" r="5.9607" fill="black"/>
<circle cx="337.376" cy="249.157" r="5.9607" fill="black"/>
<circle cx="320.686" cy="314.725" r="5.9607" fill="black"/>
<circle cx="336.183" cy="314.725" r="5.9607" fill="black"/>
<circle cx="331.415" cy="324.262" r="5.9607" fill="black"/>
<circle cx="358.834" cy="319.493" r="5.9607" fill="black"/>
<circle cx="368.371" cy="326.646" r="5.9607" fill="black"/>
<circle cx="376.716" cy="336.183" r="5.9607" fill="black"/>
<circle cx="355.258" cy="349.297" r="5.9607" fill="black"/>
<circle cx="364.795" cy="357.642" r="5.9607" fill="black"/>
<circle cx="377.908" cy="354.065" r="5.9607" fill="black"/>
<circle cx="386.253" cy="344.528" r="5.9607" fill="black"/>
<circle cx="400.559" cy="345.72" r="5.9607" fill="black"/>
<circle cx="398.175" cy="331.415" r="5.9607" fill="black"/>
<circle cx="413.672" cy="327.838" r="5.9607" fill="black"/>
<circle cx="395.79" cy="364.795" r="5.9607" fill="black"/>
<circle cx="376.716" cy="368.371" r="5.9607" fill="black"/>
<circle cx="387.445" cy="375.524" r="5.9607" fill="black"/>
<circle cx="369.563" cy="382.677" r="5.9607" fill="black"/>
<circle cx="385.061" cy="389.83" r="5.9607" fill="black"/>
<circle cx="401.751" cy="385.061" r="5.9607" fill="black"/>
<circle cx="420.825" cy="389.83" r="5.9607" fill="black"/>
<circle cx="437.515" cy="382.677" r="5.9607" fill="black"/>
<circle cx="453.013" cy="389.83" r="5.9607" fill="black"/>
<circle cx="460.166" cy="453.013" r="5.9607" fill="black"/>
<circle cx="439.9" cy="442.284" r="5.9607" fill="black"/>
<circle cx="411.288" cy="430.362" r="5.9607" fill="black"/>
<circle cx="426.786" cy="432.747" r="5.9607" fill="black"/>
<circle cx="10.7293" cy="363.603" r="5.9607" fill="black"/>
<circle cx="25.0349" cy="368.371" r="4.76856" fill="black"/>
<circle cx="25.0349" cy="393.406" r="4.76856" fill="black"/>
<circle cx="7.15284" cy="391.022" r="4.76856" fill="black"/>
<circle cx="42.9171" cy="399.367" r="4.76856" fill="black"/>
<circle cx="28.6113" cy="412.48" r="4.76856" fill="black"/>
<circle cx="10.7293" cy="405.328" r="4.76856" fill="black"/>
<circle cx="10.7293" cy="426.786" r="4.76856" fill="black"/>
<circle cx="32.1877" cy="435.131" r="4.76856" fill="black"/>
<circle cx="50.0699" cy="425.594" r="4.76856" fill="black"/>
<circle cx="83.4498" cy="427.978" r="4.76856" fill="black"/>
<circle cx="64.3756" cy="435.131" r="4.76856" fill="black"/>
<circle cx="78.6812" cy="448.245" r="4.76856" fill="black"/>
<circle cx="52.4542" cy="448.245" r="4.76856" fill="black"/>
<circle cx="25.0349" cy="458.974" r="4.76856" fill="black"/>
<circle cx="5.9607" cy="445.86" r="4.76856" fill="black"/>
<circle cx="4.76856" cy="470.895" r="4.76856" fill="black"/>
<circle cx="28.6113" cy="482.817" r="4.76856" fill="black"/>
<circle cx="13.1135" cy="497.122" r="4.76856" fill="black"/>
<circle cx="10.7293" cy="516.197" r="4.76856" fill="black"/>
<circle cx="36.9563" cy="513.812" r="4.76856" fill="black"/>
<circle cx="50.0699" cy="489.969" r="4.76856" fill="black"/>
<circle cx="56.0306" cy="464.935" r="4.76856" fill="black"/>
<circle cx="73.9126" cy="478.048" r="4.76856" fill="black"/>
<circle cx="85.8341" cy="467.319" r="4.76856" fill="black"/>
<circle cx="102.524" cy="457.782" r="4.76856" fill="black"/>
<circle cx="104.908" cy="478.048" r="4.76856" fill="black"/>
<circle cx="126.367" cy="478.048" r="4.76856" fill="black"/>
<circle cx="127.559" cy="497.122" r="4.76856" fill="black"/>
<circle cx="110.869" cy="494.738" r="4.76856" fill="black"/>
<circle cx="83.4498" cy="497.122" r="4.76856" fill="black"/>
<circle cx="64.3756" cy="504.275" r="4.76856" fill="black"/>
<circle cx="98.9476" cy="506.659" r="4.76856" fill="black"/>
<circle cx="91.7948" cy="520.965" r="4.76856" fill="black"/>
<circle cx="83.4498" cy="534.079" r="4.76856" fill="black"/>
<circle cx="59.607" cy="529.31" r="4.76856" fill="black"/>
<circle cx="56.0306" cy="548.384" r="4.76856" fill="black"/>
<circle cx="78.6812" cy="554.345" r="4.76856" fill="black"/>
<circle cx="95.3712" cy="551.961" r="4.76856" fill="black"/>
<circle cx="114.445" cy="542.424" r="4.76856" fill="black"/>
<circle cx="127.559" cy="536.463" r="4.76856" fill="black"/>
<circle cx="114.445" cy="520.965" r="4.76856" fill="black"/>
<circle cx="132.328" cy="517.389" r="4.76856" fill="black"/>
<circle cx="145.441" cy="509.044" r="4.76856" fill="black"/>
<circle cx="153.786" cy="494.738" r="4.76856" fill="black"/>
<circle cx="143.057" cy="470.895" r="4.76856" fill="black"/>
<circle cx="162.131" cy="441.092" r="4.76856" fill="black"/>
<circle cx="150.21" cy="444.668" r="4.76856" fill="black"/>
<circle cx="162.131" cy="503.083" r="4.76856" fill="black"/>
<circle cx="160.939" cy="520.965" r="4.76856" fill="black"/>
<circle cx="149.017" cy="531.694" r="4.76856" fill="black"/>
<circle cx="134.712" cy="555.537" r="4.76856" fill="black"/>
<circle cx="121.598" cy="575.803" r="4.76856" fill="black"/>
<circle cx="106.1" cy="571.035" r="4.76856" fill="black"/>
<circle cx="87.0262" cy="579.38" r="4.76856" fill="black"/>
<circle cx="61.9913" cy="576.996" r="4.76856" fill="black"/>
<circle cx="73.9126" cy="596.07" r="4.76856" fill="black"/>
<circle cx="95.3712" cy="607.991" r="4.76856" fill="black"/>
<circle cx="119.214" cy="612.76" r="4.76856" fill="black"/>
<circle cx="121.598" cy="593.686" r="4.76856" fill="black"/>
<circle cx="138.288" cy="579.38" r="4.76856" fill="black"/>
<circle cx="158.555" cy="586.533" r="4.76856" fill="black"/>
<circle cx="370.755" cy="4.76856" r="4.76856" fill="black"/>
<circle cx="419.633" cy="35.7642" r="4.76856" fill="black"/>
<circle cx="370.755" cy="50.0699" r="4.76856" fill="black"/>
<circle cx="336.183" cy="34.572" r="4.76856" fill="black"/>
<circle cx="286.114" cy="50.0699" r="4.76856" fill="black"/>
<circle cx="263.463" cy="77.4891" r="4.76856" fill="black"/>
<circle cx="313.533" cy="59.607" r="4.76856" fill="black"/>
<circle cx="305.188" cy="82.2577" r="4.76856" fill="black"/>
<circle cx="333.799" cy="79.8734" r="4.76856" fill="black"/>
<circle cx="358.834" cy="83.4498" r="4.76856" fill="black"/>
<circle cx="330.223" cy="100.14" r="4.76856" fill="black"/>
<circle cx="314.725" cy="114.445" r="4.76856" fill="black"/>
<circle cx="293.266" cy="107.293" r="4.76856" fill="black"/>
<circle cx="258.694" cy="102.524" r="4.76856" fill="black"/>
<circle cx="243.197" cy="104.908" r="4.76856" fill="black"/>
<circle cx="268.231" cy="120.406" r="4.76856" fill="black"/>
<circle cx="238.428" cy="141.865" r="4.76856" fill="black"/>
<circle cx="262.271" cy="150.21" r="4.76856" fill="black"/>
<circle cx="286.114" cy="132.328" r="4.76856" fill="black"/>
<circle cx="287.306" cy="150.21" r="4.76856" fill="black"/>
<circle cx="276.576" cy="163.323" r="4.76856" fill="black"/>
<circle cx="289.69" cy="172.86" r="4.76856" fill="black"/>
<circle cx="308.764" cy="163.323" r="4.76856" fill="black"/>
<circle cx="315.917" cy="138.288" r="4.76856" fill="black"/>
<circle cx="338.568" cy="126.367" r="4.76856" fill="black"/>
<circle cx="337.376" cy="151.402" r="4.76856" fill="black"/>
<circle cx="330.223" cy="172.86" r="4.76856" fill="black"/>
<circle cx="313.533" cy="185.974" r="4.76856" fill="black"/>
<circle cx="296.843" cy="200.279" r="4.76856" fill="black"/>
<circle cx="315.917" cy="205.048" r="4.76856" fill="black"/>
<circle cx="331.415" cy="193.127" r="4.76856" fill="black"/>
<circle cx="333.799" cy="208.625" r="4.76856" fill="black"/>
<circle cx="324.262" cy="215.777" r="4.76856" fill="black"/>
<circle cx="344.528" cy="215.777" r="4.76856" fill="black"/>
<circle cx="363.603" cy="208.625" r="4.76856" fill="black"/>
<circle cx="354.065" cy="187.166" r="4.76856" fill="black"/>
<circle cx="351.681" cy="163.323" r="4.76856" fill="black"/>
<circle cx="356.45" cy="224.122" r="4.76856" fill="black"/>
<circle cx="348.105" cy="237.236" r="4.76856" fill="black"/>
<circle cx="358.834" cy="245.581" r="4.76856" fill="black"/>
<circle cx="365.987" cy="265.847" r="4.76856" fill="black"/>
<circle cx="375.524" cy="273" r="4.76856" fill="black"/>
<circle cx="392.214" cy="271.808" r="4.76856" fill="black"/>
<circle cx="374.332" cy="259.886" r="4.76856" fill="black"/>
<circle cx="389.83" cy="255.118" r="4.76856" fill="black"/>
<circle cx="371.948" cy="245.581" r="4.76856" fill="black"/>
<circle cx="374.332" cy="236.044" r="4.76856" fill="black"/>
<circle cx="387.445" cy="224.122" r="4.76856" fill="black"/>
<circle cx="377.908" cy="215.777" r="4.76856" fill="black"/>
<circle cx="373.14" cy="193.127" r="4.76856" fill="black"/>
<circle cx="373.14" cy="175.245" r="4.76856" fill="black"/>
<circle cx="364.795" cy="141.865" r="4.76856" fill="black"/>
<circle cx="365.987" cy="112.061" r="4.76856" fill="black"/>
<circle cx="392.214" cy="115.638" r="4.76856" fill="black"/>
<circle cx="388.638" cy="152.594" r="4.76856" fill="black"/>
<circle cx="404.135" cy="153.786" r="4.76856" fill="black"/>
<circle cx="400.559" cy="171.668" r="4.76856" fill="black"/>
<circle cx="395.79" cy="196.703" r="4.76856" fill="black"/>
<circle cx="414.865" cy="178.821" r="4.76856" fill="black"/>
<circle cx="426.786" cy="199.087" r="4.76856" fill="black"/>
<circle cx="411.288" cy="211.009" r="4.76856" fill="black"/>
<circle cx="404.135" cy="236.044" r="4.76856" fill="black"/>
<circle cx="406.52" cy="253.926" r="4.76856" fill="black"/>
<circle cx="408.904" cy="276.576" r="4.76856" fill="black"/>
<circle cx="420.825" cy="267.039" r="4.76856" fill="black"/>
<circle cx="407.712" cy="295.651" r="4.76856" fill="black"/>
<circle cx="417.249" cy="302.803" r="4.76856" fill="black"/>
<circle cx="424.402" cy="288.498" r="4.76856" fill="black"/>
<circle cx="426.786" cy="325.454" r="4.76856" fill="black"/>
<circle cx="443.476" cy="318.301" r="4.76856" fill="black"/>
<circle cx="443.476" cy="300.419" r="4.76856" fill="black"/>
<circle cx="438.707" cy="281.345" r="4.76856" fill="black"/>
<circle cx="455.397" cy="276.576" r="4.76856" fill="black"/>
<circle cx="444.668" cy="261.079" r="4.76856" fill="black"/>
<circle cx="455.397" cy="255.118" r="4.76856" fill="black"/>
<circle cx="433.939" cy="242.004" r="4.76856" fill="black"/>
<circle cx="431.555" cy="218.162" r="4.76856" fill="black"/>
<circle cx="448.245" cy="221.738" r="4.76856" fill="black"/>
<circle cx="463.742" cy="226.506" r="4.76856" fill="black"/>
<circle cx="448.245" cy="203.856" r="4.76856" fill="black"/>
<circle cx="451.821" cy="184.782" r="4.76856" fill="black"/>
<circle cx="433.939" cy="156.17" r="4.76856" fill="black"/>
<circle cx="427.978" cy="118.022" r="4.76856" fill="black"/>
<circle cx="424.402" cy="83.4498" r="4.76856" fill="black"/>
<circle cx="399.367" cy="78.6812" r="4.76856" fill="black"/>
<circle cx="448.245" cy="89.4105" r="4.76856" fill="black"/>
<circle cx="513.812" cy="118.022" r="4.76856" fill="black"/>
<circle cx="463.742" cy="128.751" r="4.76856" fill="black"/>
<circle cx="464.934" cy="153.786" r="4.76856" fill="black"/>
<circle cx="499.507" cy="157.362" r="4.76856" fill="black"/>
<circle cx="518.581" cy="182.397" r="4.76856" fill="black"/>
<circle cx="474.472" cy="189.55" r="4.76856" fill="black"/>
<circle cx="495.93" cy="201.472" r="4.76856" fill="black"/>
<circle cx="482.817" cy="218.162" r="4.76856" fill="black"/>
<circle cx="509.044" cy="220.546" r="4.76856" fill="black"/>
<circle cx="474.472" cy="245.581" r="4.76856" fill="black"/>
<circle cx="491.162" cy="244.389" r="4.76856" fill="black"/>
<circle cx="513.812" cy="250.349" r="4.76856" fill="black"/>
<circle cx="540.039" cy="262.271" r="4.76856" fill="black"/>
<circle cx="511.428" cy="268.231" r="4.76856" fill="black"/>
<circle cx="487.585" cy="264.655" r="4.76856" fill="black"/>
<circle cx="478.048" cy="276.576" r="4.76856" fill="black"/>
<circle cx="472.087" cy="290.882" r="4.76856" fill="black"/>
<circle cx="458.974" cy="301.611" r="4.76856" fill="black"/>
<circle cx="487.585" cy="300.419" r="4.76856" fill="black"/>
<circle cx="505.467" cy="293.266" r="4.76856" fill="black"/>
<circle cx="532.886" cy="283.729" r="4.76856" fill="black"/>
<circle cx="407.712" cy="357.642" r="4.76856" fill="black"/>
<circle cx="419.633" cy="352.873" r="4.76856" fill="black"/>
<circle cx="466.127" cy="319.493" r="4.76856" fill="black"/>
<circle cx="467.319" cy="339.76" r="4.76856" fill="black"/>
<circle cx="485.201" cy="330.223" r="4.76856" fill="black"/>
<circle cx="497.122" cy="318.301" r="4.76856" fill="black"/>
<circle cx="520.965" cy="307.572" r="4.76856" fill="black"/>
<circle cx="541.231" cy="313.533" r="4.76856" fill="black"/>
<circle cx="513.812" cy="332.607" r="4.76856" fill="black"/>
<circle cx="491.162" cy="349.297" r="4.76856" fill="black"/>
<circle cx="485.201" cy="368.371" r="4.76856" fill="black"/>
<circle cx="505.467" cy="361.218" r="4.76856" fill="black"/>
<circle cx="517.389" cy="349.297" r="4.76856" fill="black"/>
<circle cx="519.773" cy="373.14" r="4.76856" fill="black"/>
<circle cx="537.655" cy="363.603" r="4.76856" fill="black"/>
<circle cx="296.843" cy="259.886" r="4.76856" fill="black"/>
<circle cx="256.31" cy="170.476" r="4.76856" fill="black"/>
<circle cx="144.249" cy="598.454" r="4.76856" fill="black"/>
<circle cx="154.978" cy="618.721" r="4.76856" fill="black"/>
<circle cx="168.092" cy="625.873" r="4.76856" fill="black"/>
<circle cx="174.052" cy="600.838" r="4.76856" fill="black"/>
<circle cx="165.707" cy="643.755" r="4.76856" fill="black"/>
<circle cx="135.904" cy="642.563" r="4.76856" fill="black"/>
<circle cx="104.908" cy="643.755" r="4.76856" fill="black"/>
<circle cx="70.3363" cy="641.371" r="4.76856" fill="black"/>
<circle cx="106.1" cy="668.79" r="4.76856" fill="black"/>
<circle cx="141.865" cy="680.712" r="4.76856" fill="black"/>
<circle cx="121.598" cy="709.323" r="4.76856" fill="black"/>
<circle cx="145.441" cy="714.092" r="4.76856" fill="black"/>
<circle cx="170.476" cy="720.052" r="4.76856" fill="black"/>
<circle cx="180.013" cy="683.096" r="4.76856" fill="black"/>
<circle cx="181.205" cy="646.14" r="4.76856" fill="black"/>
<circle cx="206.24" cy="656.869" r="4.76856" fill="black"/>
<circle cx="205.048" cy="685.48" r="4.76856" fill="black"/>
<circle cx="212.201" cy="714.092" r="4.76856" fill="black"/>
<circle cx="200.279" cy="748.664" r="4.76856" fill="black"/>
<circle cx="150.21" cy="762.969" r="4.76856" fill="black"/>
<circle cx="200.279" cy="793.965" r="4.76856" fill="black"/>
<circle cx="231.275" cy="798.734" r="4.76856" fill="black"/>
<circle cx="233.659" cy="762.969" r="4.76856" fill="black"/>
<circle cx="262.271" cy="770.122" r="4.76856" fill="black"/>
<circle cx="257.502" cy="737.934" r="4.76856" fill="black"/>
<circle cx="236.044" cy="718.86" r="4.76856" fill="black"/>
<circle cx="264.655" cy="715.284" r="4.76856" fill="black"/>
<circle cx="239.62" cy="697.402" r="4.76856" fill="black"/>
<circle cx="256.31" cy="683.096" r="4.76856" fill="black"/>
<circle cx="277.769" cy="690.249" r="4.76856" fill="black"/>
<circle cx="253.926" cy="659.253" r="4.76856" fill="black"/>
<circle cx="231.275" cy="671.175" r="4.76856" fill="black"/>
<circle cx="233.659" cy="646.14" r="4.76856" fill="black"/>
<circle cx="219.354" cy="634.218" r="4.76856" fill="black"/>
<circle cx="238.428" cy="624.681" r="4.76856" fill="black"/>
<circle cx="262.271" cy="634.218" r="4.76856" fill="black"/>
<circle cx="282.537" cy="647.332" r="4.76856" fill="black"/>
<circle cx="294.459" cy="634.218" r="4.76856" fill="black"/>
<circle cx="280.153" cy="624.681" r="4.76856" fill="black"/>
<circle cx="257.502" cy="612.76" r="4.76856" fill="black"/>
<circle cx="239.62" cy="604.415" r="4.76856" fill="black"/>
<circle cx="215.777" cy="610.376" r="4.76856" fill="black"/>
<circle cx="196.703" cy="605.607" r="4.76856" fill="black"/>
<circle cx="197.895" cy="622.297" r="4.76856" fill="black"/>
<circle cx="207.432" cy="590.109" r="4.76856" fill="black"/>
<circle cx="236.044" cy="590.109" r="4.76856" fill="black"/>
<circle cx="245.581" cy="581.764" r="4.76856" fill="black"/>
<circle cx="226.507" cy="581.764" r="4.76856" fill="black"/>
<circle cx="214.585" cy="573.419" r="4.76856" fill="black"/>
<circle cx="221.738" cy="560.306" r="4.76856" fill="black"/>
<circle cx="212.201" cy="553.153" r="4.76856" fill="black"/>
<circle cx="197.895" cy="551.961" r="4.76856" fill="black"/>
<circle cx="274.192" cy="538.847" r="4.76856" fill="black"/>
<circle cx="195.511" cy="562.69" r="4.76856" fill="black"/>
<circle cx="182.397" cy="574.611" r="4.76856" fill="black"/>
<circle cx="191.934" cy="581.764" r="4.76856" fill="black"/>
<circle cx="165.707" cy="561.498" r="4.76856" fill="black"/>
<circle cx="163.323" cy="543.616" r="4.76856" fill="black"/>
<circle cx="180.013" cy="542.424" r="4.76856" fill="black"/>
<circle cx="178.821" cy="525.734" r="4.76856" fill="black"/>
<circle cx="194.319" cy="525.734" r="4.76856" fill="black"/>
<circle cx="205.048" cy="532.886" r="4.76856" fill="black"/>
<circle cx="194.319" cy="536.463" r="4.76856" fill="black"/>
<circle cx="255.118" cy="592.493" r="4.76856" fill="black"/>
<circle cx="273" cy="598.454" r="4.76856" fill="black"/>
<circle cx="313.533" cy="628.258" r="4.76856" fill="black"/>
<circle cx="308.764" cy="647.332" r="4.76856" fill="black"/>
<circle cx="331.415" cy="655.677" r="4.76856" fill="black"/>
<circle cx="53.6463" cy="387.445" r="5.9607" fill="black"/>
<circle cx="38.1484" cy="380.292" r="5.9607" fill="black"/>
<circle cx="76.2969" cy="383.869" r="5.9607" fill="black"/>
<circle cx="91.7948" cy="374.332" r="5.9607" fill="black"/>
<circle cx="91.7948" cy="396.983" r="5.9607" fill="black"/>
<circle cx="79.8734" cy="411.288" r="5.9607" fill="black"/>
<circle cx="61.9913" cy="404.135" r="5.9607" fill="black"/>
<circle cx="98.9476" cy="416.057" r="5.9607" fill="black"/>
<circle cx="116.83" cy="408.904" r="5.9607" fill="black"/>
<circle cx="115.638" cy="391.022" r="5.9607" fill="black"/>
<circle cx="133.52" cy="399.367" r="5.9607" fill="black"/>
<circle cx="133.52" cy="416.057" r="5.9607" fill="black"/>
<circle cx="121.598" cy="429.17" r="5.9607" fill="black"/>
<circle cx="113.253" cy="445.86" r="5.9607" fill="black"/>
<circle cx="97.7554" cy="438.707" r="5.9607" fill="black"/>
<circle cx="122.79" cy="463.742" r="5.9607" fill="black"/>
<circle cx="141.865" cy="455.397" r="5.9607" fill="black"/>
<circle cx="139.48" cy="433.939" r="5.9607" fill="black"/>
<circle cx="145.441" cy="420.825" r="5.9607" fill="black"/>
<circle cx="158.555" cy="425.594" r="5.9607" fill="black"/>
<circle cx="149.017" cy="407.712" r="5.9607" fill="black"/>
<circle cx="168.092" cy="412.48" r="5.9607" fill="black"/>
<circle cx="184.782" cy="407.712" r="5.9607" fill="black"/>
<circle cx="200.279" cy="413.672" r="5.9607" fill="black"/>
<circle cx="182.397" cy="423.21" r="5.9607" fill="black"/>
<circle cx="193.127" cy="429.17" r="5.9607" fill="black"/>
<circle cx="208.624" cy="426.786" r="5.9607" fill="black"/>
<circle cx="170.476" cy="453.013" r="5.9607" fill="black"/>
<circle cx="174.052" cy="432.747" r="5.9607" fill="black"/>
<circle cx="205.048" cy="439.9" r="5.9607" fill="black"/>
<circle cx="213.393" cy="448.245" r="5.9607" fill="black"/>
<circle cx="227.699" cy="448.245" r="5.9607" fill="black"/>
<circle cx="238.428" cy="455.397" r="5.9607" fill="black"/>
<circle cx="249.157" cy="458.974" r="5.9607" fill="black"/>
<circle cx="253.926" cy="468.511" r="5.9607" fill="black"/>
<circle cx="263.463" cy="468.511" r="5.9607" fill="black"/>
<circle cx="278.961" cy="472.087" r="5.9607" fill="black"/>
<circle cx="273" cy="486.393" r="5.9607" fill="black"/>
<circle cx="263.463" cy="500.699" r="5.9607" fill="black"/>
<circle cx="252.734" cy="503.083" r="5.9607" fill="black"/>
<circle cx="243.197" cy="495.93" r="5.9607" fill="black"/>
<circle cx="247.965" cy="482.817" r="5.9607" fill="black"/>
<circle cx="233.659" cy="482.817" r="5.9607" fill="black"/>
<circle cx="238.428" cy="472.087" r="5.9607" fill="black"/>
<circle cx="226.507" cy="462.55" r="5.9607" fill="black"/>
<circle cx="221.738" cy="476.856" r="5.9607" fill="black"/>
<circle cx="209.817" cy="478.048" r="5.9607" fill="black"/>
<circle cx="201.472" cy="469.703" r="5.9607" fill="black"/>
<circle cx="212.201" cy="463.742" r="5.9607" fill="black"/>
<circle cx="193.127" cy="461.358" r="5.9607" fill="black"/>
<circle cx="183.59" cy="454.205" r="5.9607" fill="black"/>
<circle cx="191.935" cy="444.668" r="5.9607" fill="black"/>
<circle cx="171.668" cy="467.319" r="5.9607" fill="black"/>
<circle cx="185.974" cy="479.24" r="5.9607" fill="black"/>
<circle cx="172.86" cy="491.162" r="5.9607" fill="black"/>
<circle cx="174.052" cy="511.428" r="5.9607" fill="black"/>
<circle cx="187.166" cy="500.699" r="5.9607" fill="black"/>
<circle cx="199.087" cy="491.162" r="5.9607" fill="black"/>
<circle cx="197.895" cy="513.812" r="5.9607" fill="black"/>
<circle cx="211.009" cy="501.891" r="5.9607" fill="black"/>
<circle cx="221.738" cy="489.969" r="5.9607" fill="black"/>
<circle cx="227.699" cy="504.275" r="5.9607" fill="black"/>
<circle cx="237.236" cy="512.62" r="5.9607" fill="black"/>
<circle cx="231.275" cy="524.542" r="5.9607" fill="black"/>
<circle cx="216.969" cy="518.581" r="5.9607" fill="black"/>
<circle cx="218.162" cy="536.463" r="5.9607" fill="black"/>
<circle cx="233.659" cy="548.384" r="5.9607" fill="black"/>
<circle cx="236.044" cy="563.882" r="5.9607" fill="black"/>
<circle cx="253.926" cy="566.266" r="5.9607" fill="black"/>
<circle cx="251.541" cy="551.961" r="5.9607" fill="black"/>
<circle cx="263.463" cy="548.384" r="5.9607" fill="black"/>
<circle cx="274.192" cy="560.306" r="5.9607" fill="black"/>
<circle cx="267.039" cy="579.38" r="5.9607" fill="black"/>
<circle cx="290.882" cy="569.843" r="5.9607" fill="black"/>
<circle cx="283.729" cy="586.533" r="5.9607" fill="black"/>
<circle cx="305.188" cy="582.956" r="5.9607" fill="black"/>
<circle cx="320.686" cy="574.611" r="5.9607" fill="black"/>
<circle cx="321.878" cy="559.114" r="5.9607" fill="black"/>
<circle cx="339.76" cy="554.345" r="5.9607" fill="black"/>
<circle cx="358.834" cy="560.306" r="5.9607" fill="black"/>
<circle cx="346.913" cy="571.035" r="5.9607" fill="black"/>
<circle cx="371.948" cy="574.611" r="5.9607" fill="black"/>
<circle cx="387.445" cy="581.764" r="5.9607" fill="black"/>
<circle cx="407.712" cy="609.183" r="5.9607" fill="black"/>
<circle cx="423.21" cy="617.528" r="5.9607" fill="black"/>
<circle cx="370.755" cy="655.677" r="5.9607" fill="black"/>
<circle cx="342.144" cy="643.755" r="5.9607" fill="black"/>
<circle cx="325.454" cy="635.41" r="5.9607" fill="black"/>
<circle cx="292.074" cy="603.223" r="5.9607" fill="black"/>
<circle cx="331.415" cy="585.341" r="5.9607" fill="black"/>
<circle cx="320.686" cy="598.454" r="5.9607" fill="black"/>
<circle cx="308.764" cy="610.375" r="5.9607" fill="black"/>
<circle cx="329.031" cy="615.144" r="5.9607" fill="black"/>
<circle cx="345.721" cy="591.301" r="5.9607" fill="black"/>
<circle cx="362.41" cy="599.646" r="5.9607" fill="black"/>
<circle cx="373.14" cy="592.493" r="5.9607" fill="black"/>
<circle cx="382.677" cy="603.223" r="5.9607" fill="black"/>
<circle cx="381.485" cy="617.528" r="5.9607" fill="black"/>
<circle cx="362.41" cy="615.144" r="5.9607" fill="black"/>
<circle cx="350.489" cy="627.065" r="5.9607" fill="black"/>
<circle cx="364.795" cy="641.371" r="5.9607" fill="black"/>
<circle cx="380.293" cy="633.026" r="5.9607" fill="black"/>
<circle cx="346.913" cy="610.375" r="5.9607" fill="black"/>
<circle cx="323.07" cy="543.616" r="5.9607" fill="black"/>
<circle cx="318.301" cy="524.542" r="5.9607" fill="black"/>
<circle cx="315.917" cy="507.852" r="5.9607" fill="black"/>
<circle cx="303.996" cy="520.965" r="5.9607" fill="black"/>
<circle cx="292.074" cy="515.004" r="5.9607" fill="black"/>
<circle cx="282.537" cy="522.157" r="5.9607" fill="black"/>
<circle cx="269.424" cy="512.62" r="5.9607" fill="black"/>
<circle cx="252.734" cy="518.581" r="5.9607" fill="black"/>
<circle cx="261.079" cy="529.31" r="5.9607" fill="black"/>
<circle cx="245.581" cy="537.655" r="5.9607" fill="black"/>
<circle cx="287.306" cy="550.769" r="5.9607" fill="black"/>
<circle cx="290.882" cy="532.886" r="5.9607" fill="black"/>
<circle cx="303.996" cy="541.231" r="5.9607" fill="black"/>
<circle cx="303.996" cy="557.921" r="5.9607" fill="black"/>
<circle cx="154.978" cy="455.397" r="5.9607" fill="black"/>
<circle cx="156.17" cy="469.703" r="5.9607" fill="black"/>
<circle cx="156.17" cy="484.009" r="5.9607" fill="black"/>
<circle cx="159.747" cy="368.371" r="7.15284" fill="black"/>
<circle cx="177.629" cy="376.716" r="7.15284" fill="black"/>
<circle cx="163.323" cy="393.406" r="7.15284" fill="black"/>
<circle cx="201.472" cy="401.751" r="7.15284" fill="black"/>
<circle cx="208.624" cy="387.445" r="7.15284" fill="black"/>
<circle cx="195.511" cy="387.445" r="7.15284" fill="black"/>
<circle cx="181.205" cy="393.406" r="7.15284" fill="black"/>
<circle cx="226.507" cy="398.175" r="7.15284" fill="black"/>
<circle cx="221.738" cy="414.865" r="7.15284" fill="black"/>
<circle cx="225.314" cy="432.747" r="7.15284" fill="black"/>
<circle cx="243.197" cy="423.21" r="7.15284" fill="black"/>
<circle cx="251.542" cy="380.293" r="7.15284" fill="black"/>
<circle cx="261.079" cy="388.638" r="7.15284" fill="black"/>
<circle cx="271.808" cy="394.598" r="7.15284" fill="black"/>
<circle cx="281.345" cy="387.445" r="7.15284" fill="black"/>
<circle cx="276.576" cy="375.524" r="7.15284" fill="black"/>
<circle cx="253.926" cy="396.983" r="7.15284" fill="black"/>
<circle cx="255.118" cy="412.48" r="7.15284" fill="black"/>
<circle cx="240.812" cy="405.328" r="7.15284" fill="black"/>
<circle cx="270.616" cy="417.249" r="7.15284" fill="black"/>
<circle cx="259.886" cy="435.131" r="7.15284" fill="black"/>
<circle cx="242.004" cy="439.9" r="7.15284" fill="black"/>
<circle cx="252.734" cy="448.245" r="7.15284" fill="black"/>
<circle cx="267.039" cy="453.013" r="7.15284" fill="black"/>
<circle cx="258.694" cy="482.817" r="7.15284" fill="black"/>
<circle cx="277.769" cy="441.092" r="7.15284" fill="black"/>
<circle cx="277.769" cy="429.17" r="7.15284" fill="black"/>
<circle cx="293.266" cy="420.825" r="7.15284" fill="black"/>
<circle cx="282.537" cy="407.712" r="7.15284" fill="black"/>
<circle cx="298.035" cy="401.751" r="7.15284" fill="black"/>
<circle cx="315.917" cy="399.367" r="7.15284" fill="black"/>
<circle cx="314.725" cy="383.869" r="7.15284" fill="black"/>
<circle cx="299.227" cy="379.1" r="7.15284" fill="black"/>
<circle cx="293.266" cy="367.179" r="7.15284" fill="black"/>
<circle cx="290.882" cy="354.065" r="7.15284" fill="black"/>
<circle cx="311.148" cy="362.411" r="7.15284" fill="black"/>
<circle cx="302.803" cy="344.528" r="7.15284" fill="black"/>
<circle cx="317.109" cy="348.105" r="7.15284" fill="black"/>
<circle cx="311.148" cy="313.533" r="7.15284" fill="black"/>
<circle cx="329.031" cy="357.642" r="7.15284" fill="black"/>
<circle cx="309.956" cy="406.52" r="7.15284" fill="black"/>
<circle cx="317.109" cy="416.057" r="7.15284" fill="black"/>
<circle cx="330.223" cy="412.48" r="7.15284" fill="black"/>
<circle cx="329.031" cy="427.978" r="7.15284" fill="black"/>
<circle cx="318.301" cy="437.515" r="7.15284" fill="black"/>
<circle cx="305.188" cy="438.707" r="7.15284" fill="black"/>
<circle cx="303.996" cy="449.437" r="7.15284" fill="black"/>
<circle cx="305.188" cy="466.127" r="7.15284" fill="black"/>
<circle cx="293.266" cy="473.279" r="7.15284" fill="black"/>
<circle cx="293.266" cy="486.393" r="7.15284" fill="black"/>
<circle cx="301.611" cy="498.314" r="7.15284" fill="black"/>
<circle cx="280.153" cy="501.891" r="7.15284" fill="black"/>
<circle cx="332.607" cy="511.428" r="7.15284" fill="black"/>
<circle cx="333.799" cy="529.31" r="7.15284" fill="black"/>
<circle cx="352.873" cy="520.965" r="7.15284" fill="black"/>
<circle cx="365.987" cy="530.502" r="7.15284" fill="black"/>
<circle cx="354.065" cy="541.231" r="7.15284" fill="black"/>
<circle cx="370.755" cy="553.153" r="7.15284" fill="black"/>
<circle cx="389.83" cy="563.882" r="7.15284" fill="black"/>
<circle cx="408.904" cy="561.498" r="7.15284" fill="black"/>
<circle cx="410.096" cy="546" r="7.15284" fill="black"/>
<circle cx="401.751" cy="531.694" r="7.15284" fill="black"/>
<circle cx="385.061" cy="523.349" r="7.15284" fill="black"/>
<circle cx="383.869" cy="540.039" r="7.15284" fill="black"/>
<circle cx="373.14" cy="511.428" r="7.15284" fill="black"/>
<circle cx="364.795" cy="497.122" r="7.15284" fill="black"/>
<circle cx="349.297" cy="503.083" r="7.15284" fill="black"/>
<circle cx="334.991" cy="495.93" r="7.15284" fill="black"/>
<circle cx="321.878" cy="492.354" r="7.15284" fill="black"/>
<circle cx="314.725" cy="478.048" r="7.15284" fill="black"/>
<circle cx="320.686" cy="466.127" r="7.15284" fill="black"/>
<circle cx="333.799" cy="478.048" r="7.15284" fill="black"/>
<circle cx="349.297" cy="476.856" r="7.15284" fill="black"/>
<circle cx="364.795" cy="479.24" r="7.15284" fill="black"/>
<circle cx="373.14" cy="470.895" r="7.15284" fill="black"/>
<circle cx="388.638" cy="485.201" r="7.15284" fill="black"/>
<circle cx="379.1" cy="492.354" r="7.15284" fill="black"/>
<circle cx="392.214" cy="504.275" r="7.15284" fill="black"/>
<circle cx="400.559" cy="494.738" r="7.15284" fill="black"/>
<circle cx="404.135" cy="478.048" r="7.15284" fill="black"/>
<circle cx="393.406" cy="469.703" r="7.15284" fill="black"/>
<circle cx="408.904" cy="461.358" r="7.15284" fill="black"/>
<circle cx="425.594" cy="472.087" r="7.15284" fill="black"/>
<circle cx="417.249" cy="489.969" r="7.15284" fill="black"/>
<circle cx="416.057" cy="507.852" r="7.15284" fill="black"/>
<circle cx="406.52" cy="515.004" r="7.15284" fill="black"/>
<circle cx="431.555" cy="507.852" r="7.15284" fill="black"/>
<circle cx="429.17" cy="522.157" r="7.15284" fill="black"/>
<circle cx="420.825" cy="531.694" r="7.15284" fill="black"/>
<circle cx="439.9" cy="528.118" r="7.15284" fill="black"/>
<circle cx="448.245" cy="518.581" r="7.15284" fill="black"/>
<circle cx="463.742" cy="520.965" r="7.15284" fill="black"/>
<circle cx="462.55" cy="504.275" r="7.15284" fill="black"/>
<circle cx="482.817" cy="499.507" r="7.15284" fill="black"/>
<circle cx="466.127" cy="487.585" r="7.15284" fill="black"/>
<circle cx="464.935" cy="469.703" r="7.15284" fill="black"/>
<circle cx="445.86" cy="457.782" r="7.15284" fill="black"/>
<circle cx="423.21" cy="449.437" r="7.15284" fill="black"/>
<circle cx="401.751" cy="444.668" r="7.15284" fill="black"/>
<circle cx="385.061" cy="437.515" r="7.15284" fill="black"/>
<circle cx="371.948" cy="429.17" r="7.15284" fill="black"/>
<circle cx="393.406" cy="422.017" r="7.15284" fill="black"/>
<circle cx="388.638" cy="404.135" r="7.15284" fill="black"/>
<circle cx="406.52" cy="404.135" r="7.15284" fill="black"/>
<circle cx="375.524" cy="410.096" r="7.15284" fill="black"/>
<circle cx="361.218" cy="408.904" r="7.15284" fill="black"/>
<circle cx="345.721" cy="365.987" r="7.15284" fill="black"/>
<circle cx="348.105" cy="382.677" r="7.15284" fill="black"/>
<circle cx="345.721" cy="398.175" r="7.15284" fill="black"/>
<circle cx="368.371" cy="394.598" r="7.15284" fill="black"/>
<circle cx="330.223" cy="393.406" r="7.15284" fill="black"/>
<circle cx="326.646" cy="375.524" r="7.15284" fill="black"/>
<circle cx="344.528" cy="414.865" r="7.15284" fill="black"/>
<circle cx="352.873" cy="423.21" r="7.15284" fill="black"/>
<circle cx="356.45" cy="437.515" r="7.15284" fill="black"/>
<circle cx="338.568" cy="441.092" r="7.15284" fill="black"/>
<circle cx="331.415" cy="450.629" r="7.15284" fill="black"/>
<circle cx="333.799" cy="462.55" r="7.15284" fill="black"/>
<circle cx="350.489" cy="463.742" r="7.15284" fill="black"/>
<circle cx="352.873" cy="451.821" r="7.15284" fill="black"/>
<circle cx="368.371" cy="455.397" r="7.15284" fill="black"/>
<circle cx="464.935" cy="540.039" r="7.15284" fill="black"/>
<circle cx="464.935" cy="551.961" r="7.15284" fill="black"/>
<circle cx="454.205" cy="561.498" r="7.15284" fill="black"/>
<circle cx="447.052" cy="537.655" r="7.15284" fill="black"/>
<circle cx="441.092" cy="548.384" r="7.15284" fill="black"/>
<circle cx="427.978" cy="544.808" r="7.15284" fill="black"/>
<circle cx="443.476" cy="573.419" r="7.15284" fill="black"/>
<circle cx="433.939" cy="488.777" r="7.15284" fill="black"/>
<circle cx="448.245" cy="495.93" r="7.15284" fill="black"/>
<circle cx="445.86" cy="479.24" r="7.15284" fill="black"/>
<circle cx="427.978" cy="565.074" r="7.15284" fill="black"/>
<circle cx="411.288" cy="578.188" r="7.15284" fill="black"/>
<circle cx="414.865" cy="597.262" r="7.15284" fill="black"/>
<circle cx="398.175" cy="598.454" r="7.15284" fill="black"/>
<circle cx="292.074" cy="439.9" r="7.15284" fill="black"/>
<circle cx="287.306" cy="457.782" r="7.15284" fill="black"/>
<circle cx="214.585" cy="371.948" r="7.15284" fill="black"/>
<circle cx="225.314" cy="380.293" r="7.15284" fill="black"/>
<circle cx="240.812" cy="368.371" r="7.15284" fill="black"/>
<circle cx="263.463" cy="358.834" r="7.15284" fill="black"/>
<circle cx="277.769" cy="357.642" r="7.15284" fill="black"/>
<circle cx="282.537" cy="339.76" r="7.15284" fill="black"/>
<circle cx="292.074" cy="325.454" r="7.15284" fill="black"/>
<circle cx="298.035" cy="312.341" r="7.15284" fill="black"/>
<circle cx="289.69" cy="294.458" r="7.15284" fill="black"/>
</svg>
