<svg width="720" height="355" fill="none" xmlns="http://www.w3.org/2000/svg"><path d="M31.704 161.765c-5.508-.162-9.558-1.296-12.15-3.402-2.43-2.268-3.645-5.346-3.645-9.234v-3.645c.162-1.296.405-2.349.73-3.159L51.63 15.965c1.944-8.424 7.857-11.745 17.74-9.963 4.535.972 7.775 2.754 9.72 5.346 2.105 2.43 2.591 5.67 1.457 9.72l.243-.243-32.319 116.64h42.04V14.507c0-7.776 4.697-11.664 14.093-11.664 9.72 0 14.58 3.888 14.58 11.664v122.958h10.935c6.48 0 9.639 4.05 9.477 12.15-.324 8.1-3.483 12.15-9.477 12.15h-10.935v27.702c0 7.614-4.86 11.421-14.58 11.421-9.396 0-14.094-3.807-14.094-11.421v-27.702H31.704zm208.83-70.47c0-2.106-.324-4.131-.972-6.075-.648-2.106-1.458-4.05-2.43-5.832-2.106-3.888-6.48-5.832-13.122-5.832h-15.552c-6.642 0-11.097 1.944-13.365 5.832a25.375 25.375 0 00-2.916 11.907v96.228c0 7.614-4.455 11.421-13.365 11.421-9.234 0-13.851-3.807-13.851-11.421V89.108c0-13.284 4.374-23.004 13.122-29.16 8.91-6.156 17.577-9.234 26.001-9.234h24.543c3.726 0 7.857.729 12.393 2.187 4.536 1.458 8.91 3.726 13.122 6.804 4.05-3.078 8.262-5.346 12.636-6.804 4.536-1.458 8.829-2.187 12.879-2.187h24.3c8.586 0 17.172 3.078 25.758 9.234 8.91 5.994 13.365 15.714 13.365 29.16v98.415c0 7.614-4.536 11.421-13.608 11.421-9.072 0-13.608-3.807-13.608-11.421V91.295c0-2.106-.243-4.212-.729-6.318a15.908 15.908 0 00-2.673-5.832l.243.243c-1.296-2.106-2.916-3.564-4.86-4.374-1.944-.972-4.779-1.458-8.505-1.458h-15.309c-6.804 0-11.259 1.944-13.365 5.832-2.106 3.564-3.159 7.533-3.159 11.907v96.228c0 7.614-4.455 11.421-13.365 11.421-9.072 0-13.608-3.807-13.608-11.421V91.295zm159.533 95.499c0 7.776-4.455 11.664-13.365 11.664-9.072 0-13.608-3.888-13.608-11.664V61.406c0-7.776 4.536-11.664 13.608-11.664 8.91 0 13.365 3.888 13.365 11.664v125.388zm5.103-167.67c0 5.184-1.782 9.558-5.346 13.122s-7.938 5.346-13.122 5.346-9.639-1.782-13.365-5.346c-3.564-3.564-5.346-7.938-5.346-13.122 0-5.346 1.782-9.801 5.346-13.365 3.726-3.564 8.181-5.346 13.365-5.346 5.184 0 9.558 1.782 13.122 5.346s5.346 8.019 5.346 13.365zm55.393 167.67c0 7.776-4.455 11.664-13.365 11.664s-13.365-3.888-13.365-11.664V89.108c0-6.642 1.053-12.393 3.159-17.253 2.106-4.86 5.427-8.829 9.963-11.907 8.586-6.156 17.172-9.234 25.758-9.234h39.123c8.262 0 16.848 3.078 25.758 9.234 8.748 6.156 13.122 15.876 13.122 29.16v97.686c0 7.776-4.455 11.664-13.365 11.664s-13.365-3.888-13.365-11.664V91.295c0-4.212-1.296-8.262-3.888-12.15l.243.243c-2.106-3.888-6.399-5.832-12.879-5.832h-30.375c-6.642 0-11.016 1.944-13.122 5.832-2.268 3.402-3.402 7.371-3.402 11.907v95.499zM672.302 73.556h-46.899c-6.642 0-11.016 1.944-13.122 5.832-2.268 3.402-3.402 7.371-3.402 11.907v69.984c0 4.212 1.296 7.452 3.888 9.72 2.592 2.106 6.885 3.159 12.879 3.159h25.029c5.832 0 8.748 3.807 8.748 11.421 0 3.24-.729 5.994-2.187 8.262-1.296 2.106-3.483 3.159-6.561 3.159h-29.403c-10.206 0-19.278-2.592-27.216-7.776-7.938-4.86-11.907-14.094-11.907-27.702V89.108c0-6.642 1.053-12.393 3.159-17.253 2.106-4.86 5.427-8.829 9.963-11.907 8.586-6.156 17.172-9.234 25.758-9.234h51.273v-36.45c0-7.776 4.455-11.664 13.365-11.664s13.365 3.888 13.365 11.664v172.53c0 7.776-4.455 11.664-13.365 11.664-3.402 0-6.48-.567-9.234-1.701-2.754-1.296-4.131-4.05-4.131-8.262V73.556zM19.307 354c-.72 0-1.16-.36-1.32-1.08l-17.4-81.6v-.24c0-.72.36-1.08 1.08-1.08h6.72c.8 0 1.24.36 1.32 1.08l12.96 67.08c.08.16.16.24.24.24.08 0 .16-.08.24-.24l12.84-67.08c.16-.72.6-1.08 1.32-1.08h6.48c.88 0 1.24.44 1.08 1.32l-17.4 81.6c-.08.72-.52 1.08-1.32 1.08h-6.84zm51.654 0c-.8 0-1.2-.4-1.2-1.2v-81.6c0-.8.4-1.2 1.2-1.2h6.12c.8 0 1.2.4 1.2 1.2v81.6c0 .8-.4 1.2-1.2 1.2h-6.12zm52.901.96c-5.92 0-10.72-1.96-14.4-5.88-3.68-3.92-5.52-9.04-5.52-15.36v-2.76c0-.8.4-1.2 1.2-1.2h5.88c.8 0 1.2.4 1.2 1.2v2.4c0 4.24 1.08 7.68 3.24 10.32 2.16 2.56 4.96 3.84 8.4 3.84 3.36 0 6.16-1.24 8.4-3.72 2.24-2.48 3.36-5.76 3.36-9.84 0-2.72-.56-5.04-1.68-6.96-1.04-2-2.44-3.72-4.2-5.16-1.68-1.52-4.52-3.8-8.52-6.84-4-2.96-7.16-5.48-9.48-7.56-2.32-2.16-4.24-4.72-5.76-7.68-1.44-2.96-2.16-6.44-2.16-10.44 0-6.24 1.8-11.16 5.4-14.76 3.6-3.68 8.28-5.52 14.04-5.52 6.08 0 10.92 2 14.52 6 3.68 3.92 5.52 9.16 5.52 15.72v3c0 .8-.4 1.2-1.2 1.2h-6c-.8 0-1.2-.4-1.2-1.2v-3.12c0-4.24-1.08-7.64-3.24-10.2-2.08-2.64-4.88-3.96-8.4-3.96-3.2 0-5.84 1.16-7.92 3.48-2.08 2.24-3.12 5.44-3.12 9.6 0 2.48.44 4.68 1.32 6.6.96 1.84 2.36 3.6 4.2 5.28 1.84 1.68 4.56 3.88 8.16 6.6 4.8 3.52 8.36 6.4 10.68 8.64 2.4 2.16 4.24 4.56 5.52 7.2 1.28 2.56 1.92 5.68 1.92 9.36 0 6.56-1.88 11.84-5.64 15.84-3.76 3.92-8.6 5.88-14.52 5.88zm65.402 0c-6.16 0-11.12-2.12-14.88-6.36-3.76-4.24-5.64-9.84-5.64-16.8v-60.6c0-.8.4-1.2 1.2-1.2h6.12c.8 0 1.2.4 1.2 1.2v61.56c0 4.4 1.08 7.96 3.24 10.68 2.24 2.72 5.16 4.08 8.76 4.08 3.68 0 6.64-1.36 8.88-4.08 2.24-2.72 3.36-6.28 3.36-10.68V271.2c0-.8.4-1.2 1.2-1.2h6.12c.8 0 1.2.4 1.2 1.2v60.6c0 6.96-1.92 12.56-5.76 16.8-3.76 4.24-8.76 6.36-15 6.36zm80.247-.96c-.72 0-1.16-.36-1.32-1.08l-3-14.88c0-.16-.08-.28-.24-.36-.08-.08-.2-.12-.36-.12h-21.72c-.16 0-.32.04-.48.12-.08.08-.12.2-.12.36l-3 14.88c-.08.72-.52 1.08-1.32 1.08h-6.12c-.4 0-.72-.12-.96-.36-.16-.24-.2-.56-.12-.96l18-81.6c.16-.72.6-1.08 1.32-1.08h7.2c.8 0 1.24.36 1.32 1.08l18.24 81.6v.24c0 .72-.36 1.08-1.08 1.08h-6.24zm-25.68-23.88c0 .32.12.48.36.48h18.96c.24 0 .36-.16.36-.48l-9.6-47.16c-.08-.24-.16-.36-.24-.36-.08 0-.16.12-.24.36l-9.6 47.16zM300.25 354c-.8 0-1.2-.4-1.2-1.2v-81.6c0-.8.4-1.2 1.2-1.2h6.12c.8 0 1.2.4 1.2 1.2v74.88c0 .32.16.48.48.48h27.48c.8 0 1.2.4 1.2 1.2v5.04c0 .8-.4 1.2-1.2 1.2h-35.28zm59.578 0c-.8 0-1.2-.4-1.2-1.2v-81.6c0-.8.4-1.2 1.2-1.2h6.12c.8 0 1.2.4 1.2 1.2v81.6c0 .8-.4 1.2-1.2 1.2h-6.12zm33.102 0c-.8 0-1.2-.4-1.2-1.2v-5.52c0-.4.12-.88.36-1.44l29.16-67.8c.08-.16.08-.28 0-.36-.08-.16-.2-.24-.36-.24h-27.96c-.8 0-1.2-.4-1.2-1.2v-5.04c0-.8.4-1.2 1.2-1.2h36.36c.8 0 1.2.4 1.2 1.2v5.52c0 .32-.12.8-.36 1.44l-29.04 67.8a.51.51 0 000 .48c.08.08.2.12.36.12h27.84c.8 0 1.2.4 1.2 1.2v5.04c0 .8-.4 1.2-1.2 1.2h-36.36zm94.503 0c-.72 0-1.16-.36-1.32-1.08l-3-14.88c0-.16-.08-.28-.24-.36-.08-.08-.2-.12-.36-.12h-21.72c-.16 0-.32.04-.48.12-.08.08-.12.2-.12.36l-3 14.88c-.08.72-.52 1.08-1.32 1.08h-6.12c-.4 0-.72-.12-.96-.36-.16-.24-.2-.56-.12-.96l18-81.6c.16-.72.6-1.08 1.32-1.08h7.2c.8 0 1.24.36 1.32 1.08l18.24 81.6v.24c0 .72-.36 1.08-1.08 1.08h-6.24zm-25.68-23.88c0 .32.12.48.36.48h18.96c.24 0 .36-.16.36-.48l-9.6-47.16c-.08-.24-.16-.36-.24-.36-.08 0-.16.12-.24.36l-9.6 47.16zM546.664 270c.8 0 1.2.4 1.2 1.2v5.04c0 .8-.4 1.2-1.2 1.2h-15.84c-.32 0-.48.16-.48.48v74.88c0 .8-.4 1.2-1.2 1.2h-6.12c-.8 0-1.2-.4-1.2-1.2v-74.88c0-.32-.16-.48-.48-.48h-14.88c-.8 0-1.2-.4-1.2-1.2v-5.04c0-.8.4-1.2 1.2-1.2h40.2zm27.102 84c-.8 0-1.2-.4-1.2-1.2v-81.6c0-.8.4-1.2 1.2-1.2h6.12c.8 0 1.2.4 1.2 1.2v81.6c0 .8-.4 1.2-1.2 1.2h-6.12zm55.181.96c-6.16 0-11.16-1.92-15-5.76-3.76-3.84-5.64-8.92-5.64-15.24v-43.92c0-6.32 1.88-11.4 5.64-15.24 3.84-3.84 8.84-5.76 15-5.76 6.24 0 11.28 1.92 15.12 5.76s5.76 8.92 5.76 15.24v43.92c0 6.24-1.92 11.32-5.76 15.24-3.84 3.84-8.88 5.76-15.12 5.76zm0-7.44c3.68 0 6.64-1.2 8.88-3.6 2.32-2.48 3.48-5.64 3.48-9.48v-44.76c0-3.92-1.16-7.08-3.48-9.48-2.24-2.48-5.2-3.72-8.88-3.72-3.6 0-6.52 1.24-8.76 3.72-2.24 2.4-3.36 5.56-3.36 9.48v44.76c0 3.84 1.12 7 3.36 9.48 2.24 2.4 5.16 3.6 8.76 3.6zm81.727-76.32c0-.8.4-1.2 1.2-1.2h6c.8 0 1.2.4 1.2 1.2v81.6c0 .8-.4 1.2-1.2 1.2h-7.08c-.64 0-1.08-.32-1.32-.96l-23.4-62.04c-.08-.24-.2-.32-.36-.24-.16 0-.24.12-.24.36l.12 61.68c0 .8-.4 1.2-1.2 1.2h-6.12c-.8 0-1.2-.4-1.2-1.2v-81.6c0-.8.4-1.2 1.2-1.2h6.96c.64 0 1.08.32 1.32.96l23.52 62.16c.08.24.2.36.36.36.16-.08.24-.24.24-.48v-61.8z" fill="#000"/></svg>